/*  This file is part of Gjdict
    Copyright (C) 1998-2000, 2008 Sergey Poznyakoff
    See file ../COPYING for copying conditions. */
#define 100_width 16
#define 100_height 16
static unsigned char 100_bits[] = {
   0x00, 0x30, 0xfe, 0x7f, 0x30, 0x0c, 0x30, 0x0c, 0x30, 0x0c, 0x30, 0x0c,
   0x30, 0x6c, 0xff, 0xff, 0x00, 0x0f, 0x80, 0x0f, 0xc0, 0x0d, 0xe0, 0x0c,
   0x70, 0x0c, 0x1c, 0x0c, 0x07, 0x0f, 0x00, 0x06};
