/*  This file is part of Gjdict
    Copyright (C) 1998-2000, 2008 Sergey Poznyakoff
    See file ../COPYING for copying conditions. */
#define 101_width 16
#define 101_height 16
static unsigned char 101_bits[] = {
   0x80, 0x03, 0x98, 0x01, 0x98, 0x01, 0x9c, 0x19, 0xfc, 0x3f, 0x86, 0x01,
   0x83, 0x01, 0x80, 0x01, 0x80, 0x61, 0xff, 0xff, 0x80, 0x01, 0x80, 0x01,
   0x80, 0x01, 0x80, 0x01, 0x80, 0x01, 0x80, 0x01};
