/*  This file is part of Gjdict
    Copyright (C) 1998-2000, 2008 Sergey Poznyakoff
    See file ../COPYING for copying conditions. */
#define 102_width 16
#define 102_height 16
static unsigned char 102_bits[] = {
   0x80, 0x03, 0x80, 0x19, 0x80, 0x31, 0x80, 0x31, 0x80, 0x01, 0x80, 0x41,
   0xff, 0xff, 0x80, 0x01, 0xc0, 0x01, 0xc0, 0x02, 0xe0, 0x02, 0x60, 0x06,
   0x30, 0x1c, 0x18, 0x78, 0x0c, 0xf0, 0x07, 0x60};
