/*  This file is part of Gjdict
    Copyright (C) 1998-2000, 2008 Sergey Poznyakoff
    See file ../COPYING for copying conditions. */
#define 103_width 16
#define 103_height 16
static unsigned char 103_bits[] = {
   0x00, 0x20, 0xfe, 0x7f, 0x80, 0x01, 0x80, 0x01, 0x80, 0x01, 0x80, 0x01,
   0x80, 0x11, 0xfc, 0x3f, 0x80, 0x01, 0x80, 0x01, 0x80, 0x01, 0x80, 0x01,
   0x80, 0x01, 0x80, 0x41, 0xff, 0xff, 0x00, 0x00};
