/*  This file is part of Dico
    Copyright (C) 1998-2000, 2008 Sergey Poznyakoff
    See file ../COPYING for copying conditions. */
#define 105_width 16
#define 105_height 16
static unsigned char 105_bits[] = {
   0x80, 0x03, 0x80, 0x01, 0x80, 0x61, 0xff, 0xff, 0x83, 0x61, 0xc3, 0x60,
   0x63, 0x60, 0x33, 0x66, 0x1b, 0x67, 0xfb, 0x68, 0x03, 0x60, 0x03, 0x60,
   0x03, 0x60, 0x03, 0x60, 0x03, 0x7c, 0x03, 0x30};
