/*  This file is part of Dico
    Copyright (C) 1998-2000, 2008 Sergey Poznyakoff
    See file ../COPYING for copying conditions. */
#define 106_width 16
#define 106_height 16
static unsigned char 106_bits[] = {
   0xc0, 0x41, 0xc0, 0xe8, 0xfc, 0x3f, 0xc0, 0x18, 0xc0, 0x4c, 0xff, 0xff,
   0x00, 0x03, 0xc0, 0x01, 0x70, 0x00, 0x1c, 0x00, 0x07, 0x00, 0x00, 0x00,
   0x00, 0x00, 0x00, 0x00, 0x00, 0x00, 0x00, 0x00};
