/*  This file is part of Gjdict
    Copyright (C) 1998-2000, 2008 Sergey Poznyakoff
    See file ../COPYING for copying conditions. */
#define 107_width 16
#define 107_height 16
static unsigned char 107_bits[] = {
   0x20, 0x06, 0xe0, 0x0f, 0x60, 0x06, 0x60, 0x06, 0x60, 0x06, 0xe0, 0x07,
   0x60, 0x06, 0x60, 0x06, 0x60, 0x06, 0xe0, 0x07, 0x60, 0x06, 0x60, 0x06,
   0x60, 0x06, 0x20, 0x06, 0x30, 0x07, 0x18, 0x02};
