/*  This file is part of Dico
    Copyright (C) 1998-2000, 2008 Sergey Poznyakoff
    See file ../COPYING for copying conditions. */
#define 109_width 16
#define 109_height 16
static unsigned char 109_bits[] = {
   0x02, 0x00, 0x1c, 0x00, 0x18, 0x00, 0x02, 0x00, 0x1c, 0x00, 0x18, 0x00,
   0x00, 0x00, 0x18, 0x00, 0x3f, 0x00, 0x18, 0x00, 0x18, 0x00, 0x18, 0x00,
   0x18, 0x00, 0x1c, 0x00, 0xf7, 0xff, 0xc2, 0x7f};
