/*  This file is part of Gjdict
    Copyright (C) 1998-2000, 2008 Sergey Poznyakoff
    See file ../COPYING for copying conditions. */
#define 11_width 16
#define 11_height 16
static unsigned char 11_bits[] = {
   0x80, 0x01, 0xfc, 0x03, 0x80, 0x01, 0x80, 0x01, 0x80, 0x01, 0x80, 0x01,
   0x80, 0x01, 0xc0, 0x02, 0xc0, 0x02, 0x60, 0x04, 0x60, 0x04, 0x30, 0x0c,
   0x30, 0x18, 0x18, 0xf8, 0x0c, 0x70, 0x03, 0x20};
