/*  This file is part of Gjdict
    Copyright (C) 1998-2000, 2008 Sergey Poznyakoff
    See file ../COPYING for copying conditions. */
#define 110_width 16
#define 110_height 16
static unsigned char 110_bits[] = {
   0x80, 0x03, 0x80, 0x01, 0x80, 0x61, 0xff, 0xff, 0x80, 0x00, 0x80, 0x13,
   0x84, 0x19, 0xc8, 0x38, 0x50, 0x1c, 0x30, 0x0c, 0x60, 0x06, 0x60, 0x02,
   0x00, 0x19, 0x80, 0x30, 0xf8, 0x7f, 0x3f, 0x60};
