/*  This file is part of Dico
    Copyright (C) 1998-2000, 2008 Sergey Poznyakoff
    See file ../COPYING for copying conditions. */
#define 111_width 16
#define 111_height 16
static unsigned char 111_bits[] = {
   0x00, 0x30, 0xfe, 0x7f, 0x80, 0x01, 0x80, 0x01, 0x80, 0x01, 0x80, 0x01,
   0x80, 0x19, 0xfc, 0x3f, 0x80, 0x01, 0x80, 0x0d, 0x80, 0x39, 0x80, 0x31,
   0x80, 0x01, 0x80, 0x61, 0xff, 0xff, 0x00, 0x00};
