/*  This file is part of Gjdict
    Copyright (C) 1998-2000, 2008 Sergey Poznyakoff
    See file ../COPYING for copying conditions. */
#define 112_width 16
#define 112_height 16
static unsigned char 112_bits[] = {
   0x00, 0x30, 0x04, 0x7e, 0xfc, 0x13, 0x0c, 0x10, 0x8c, 0x13, 0x8c, 0x11,
   0x8c, 0x11, 0x8c, 0x11, 0x8c, 0x11, 0x8c, 0x21, 0x8c, 0x21, 0x8c, 0x65,
   0x86, 0x65, 0x86, 0xef, 0xf2, 0xc9, 0x23, 0xc0};
