/*  This file is part of Dico
    Copyright (C) 1998-2000, 2008 Sergey Poznyakoff
    See file ../COPYING for copying conditions. */
#define 114_width 16
#define 114_height 16
static unsigned char 114_bits[] = {
   0x38, 0x1c, 0x18, 0x0c, 0x18, 0x0c, 0x18, 0x4c, 0xff, 0xff, 0x18, 0x0c,
   0x18, 0x0c, 0x18, 0x0c, 0x18, 0x0c, 0xf8, 0x0f, 0x18, 0x0c, 0x18, 0x0c,
   0x18, 0x0c, 0x18, 0x0c, 0xf8, 0x0f, 0x18, 0x0c};
