/*  This file is part of Gjdict
    Copyright (C) 1998-2000, 2008 Sergey Poznyakoff
    See file ../COPYING for copying conditions. */
#define 115_width 16
#define 115_height 16
static unsigned char 115_bits[] = {
   0x80, 0x03, 0x88, 0x01, 0x98, 0x01, 0x98, 0x31, 0xf8, 0x7f, 0x8c, 0x01,
   0x8c, 0x01, 0x86, 0x01, 0x81, 0x19, 0xfc, 0x3f, 0x80, 0x01, 0x80, 0x01,
   0x80, 0x01, 0x80, 0x61, 0xff, 0xff, 0x00, 0x00};
