/*  This file is part of Dico
    Copyright (C) 1998-2000, 2008 Sergey Poznyakoff
    See file ../COPYING for copying conditions. */
#define 116_width 16
#define 116_height 16
static unsigned char 116_bits[] = {
   0x04, 0x60, 0xfc, 0xff, 0x8c, 0x61, 0x8c, 0x61, 0x8c, 0x61, 0xfc, 0x7f,
   0x8c, 0x61, 0x8c, 0x61, 0x8c, 0x61, 0xfc, 0x7f, 0x8c, 0x61, 0x8c, 0x61,
   0x84, 0x61, 0x86, 0x61, 0x82, 0x79, 0x81, 0x31};
