/*  This file is part of Dico
    Copyright (C) 1998-2000, 2008 Sergey Poznyakoff
    See file ../COPYING for copying conditions. */
#define 118_width 16
#define 118_height 16
static unsigned char 118_bits[] = {
   0x00, 0x60, 0xfe, 0xff, 0x80, 0x61, 0x80, 0x21, 0x88, 0x11, 0xb8, 0x01,
   0x98, 0x19, 0x98, 0x3f, 0x98, 0x01, 0x8c, 0x01, 0x8c, 0x01, 0x94, 0x01,
   0xb4, 0x01, 0xe2, 0x01, 0xc2, 0xff, 0x01, 0x7c};
