/*  This file is part of Gjdict
    Copyright (C) 1998-2000, 2008 Sergey Poznyakoff
    See file ../COPYING for copying conditions. */
#define 119_width 16
#define 119_height 16
static unsigned char 119_bits[] = {
   0x00, 0x07, 0x08, 0x63, 0xf8, 0xff, 0x19, 0x00, 0x1b, 0x00, 0x1a, 0x00,
   0x18, 0x00, 0x1c, 0x00, 0x1b, 0x00, 0x1b, 0x00, 0x09, 0x00, 0x0c, 0x00,
   0x04, 0x00, 0x06, 0x00, 0x03, 0x00, 0x00, 0x00};
