/*  This file is part of Gjdict
    Copyright (C) 1998-2000, 2008 Sergey Poznyakoff
    See file ../COPYING for copying conditions. */
#define 12_width 16
#define 12_height 16
static unsigned char 12_bits[] = {
   0x00, 0x00, 0x00, 0x00, 0x00, 0x01, 0x20, 0x02, 0xe0, 0x02, 0x60, 0x02,
   0x60, 0x02, 0x30, 0x04, 0x30, 0x04, 0x30, 0x04, 0x30, 0x0c, 0x18, 0x18,
   0x18, 0x18, 0x08, 0x30, 0x04, 0xf0, 0x03, 0x60};
