/*  This file is part of Gjdict
    Copyright (C) 1998-2000, 2008 Sergey Poznyakoff
    See file ../COPYING for copying conditions. */
#define 120_width 16
#define 120_height 16
static unsigned char 120_bits[] = {
   0x00, 0x00, 0x00, 0x00, 0x00, 0x00, 0x80, 0x01, 0xfe, 0x11, 0x40, 0x1a,
   0x66, 0x42, 0x34, 0x64, 0x18, 0x0c, 0x0c, 0xf8, 0x06, 0x70, 0x03, 0x60,
   0x00, 0x00, 0x00, 0x00, 0x00, 0x00, 0x00, 0x00};
