/*  This file is part of Dico
    Copyright (C) 1998-2000, 2008 Sergey Poznyakoff
    See file ../COPYING for copying conditions. */
#define 121_width 16
#define 121_height 16
static unsigned char 121_bits[] = {
   0x80, 0x01, 0xc0, 0x01, 0x44, 0x30, 0xfc, 0x7f, 0x0c, 0x30, 0x0c, 0x30,
   0x0c, 0x30, 0x0c, 0x30, 0xfc, 0x3f, 0x0c, 0x30, 0x0c, 0x30, 0x0c, 0x30,
   0x0c, 0x30, 0x0c, 0x30, 0xfc, 0x3f, 0x0c, 0x30};
