/*  This file is part of Dico
    Copyright (C) 1998-2000, 2008 Sergey Poznyakoff
    See file ../COPYING for copying conditions. */
#define 122_width 16
#define 122_height 16
static unsigned char 122_bits[] = {
   0x80, 0x03, 0x80, 0x01, 0x84, 0x61, 0xfc, 0xff, 0x8c, 0x61, 0x8c, 0x11,
   0x8c, 0x01, 0x8c, 0x19, 0xfc, 0x3f, 0x2c, 0x18, 0x6c, 0x0c, 0xc4, 0x06,
   0x86, 0x07, 0xe2, 0x0e, 0x39, 0xfc, 0x0c, 0x30};
