/*  This file is part of Gjdict
    Copyright (C) 1998-2000, 2008 Sergey Poznyakoff
    See file ../COPYING for copying conditions. */
#define 123_width 16
#define 123_height 16
static unsigned char 123_bits[] = {
   0x00, 0x00, 0x08, 0x10, 0xf8, 0x3f, 0x48, 0x12, 0x48, 0x12, 0x48, 0x12,
   0x48, 0x12, 0x48, 0x12, 0x48, 0x12, 0x48, 0x12, 0x48, 0x12, 0x48, 0x12,
   0x48, 0x12, 0x48, 0x52, 0xfe, 0xff, 0x00, 0x00};
