/*  This file is part of Dico
    Copyright (C) 1998-2000, 2008 Sergey Poznyakoff
    See file ../COPYING for copying conditions. */
#define 125_width 16
#define 125_height 16
static unsigned char 125_bits[] = {
   0x00, 0x30, 0xfc, 0x7f, 0x00, 0x1c, 0x60, 0x06, 0xc0, 0x01, 0x80, 0x60,
   0xff, 0xff, 0x80, 0x63, 0xc0, 0x13, 0xc0, 0x03, 0x60, 0x03, 0x30, 0x03,
   0x18, 0x03, 0x0c, 0x03, 0xc7, 0x03, 0x00, 0x01};
