/*  This file is part of Dico
    Copyright (C) 1998-2000, 2008 Sergey Poznyakoff
    See file ../COPYING for copying conditions. */
#define 127_width 16
#define 127_height 16
static unsigned char 127_bits[] = {
   0x00, 0x60, 0xff, 0xff, 0x60, 0x00, 0x60, 0x00, 0x30, 0x00, 0x30, 0x00,
   0x18, 0x30, 0xf8, 0x7f, 0x3c, 0x30, 0x36, 0x30, 0x33, 0x30, 0x30, 0x30,
   0x30, 0x30, 0x30, 0x30, 0xf0, 0x3f, 0x30, 0x30};
