/*  This file is part of Dico
    Copyright (C) 1998-2000, 2008 Sergey Poznyakoff
    See file ../COPYING for copying conditions. */
#define 128_width 16
#define 128_height 16
static unsigned char 128_bits[] = {
   0x00, 0x18, 0xfc, 0x3f, 0x00, 0x00, 0x00, 0x00, 0x00, 0x00, 0x00, 0x60,
   0xff, 0xff, 0x80, 0x01, 0x88, 0x01, 0x98, 0x19, 0x9c, 0x71, 0x8c, 0xe1,
   0x86, 0xc1, 0x83, 0xc1, 0xf0, 0x01, 0xc0, 0x00};
