/*  This file is part of Dico
    Copyright (C) 1998-2000, 2008 Sergey Poznyakoff
    See file ../COPYING for copying conditions. */
#define 13_width 16
#define 13_height 16
static unsigned char 13_bits[] = {
   0x02, 0x20, 0xfe, 0xff, 0x06, 0x60, 0x06, 0x60, 0x06, 0x60, 0x06, 0x60,
   0x06, 0x60, 0x06, 0x60, 0x06, 0x60, 0x06, 0x60, 0x06, 0x60, 0x06, 0x60,
   0x06, 0x60, 0x06, 0x60, 0x06, 0x7c, 0x06, 0x30};
