/*  This file is part of Dico
    Copyright (C) 1998-2000, 2008 Sergey Poznyakoff
    See file ../COPYING for copying conditions. */
#define 130_width 16
#define 130_height 16
static unsigned char 130_bits[] = {
   0x00, 0x3e, 0xe0, 0x1f, 0xfe, 0x01, 0x80, 0x01, 0x80, 0x01, 0x80, 0x61,
   0xff, 0xff, 0xe0, 0x05, 0xb0, 0x0d, 0xb0, 0x19, 0x98, 0x19, 0x98, 0x31,
   0x8c, 0xf1, 0x86, 0xe1, 0x83, 0x41, 0x80, 0x01};
