/*  This file is part of Dico
    Copyright (C) 1998-2000, 2008 Sergey Poznyakoff
    See file ../COPYING for copying conditions. */
#define 132_width 16
#define 132_height 16
static unsigned char 132_bits[] = {
   0x80, 0x03, 0x80, 0x01, 0x80, 0x01, 0x80, 0x31, 0xfe, 0x7f, 0x00, 0x08,
   0x08, 0x38, 0x10, 0x18, 0x30, 0x18, 0x30, 0x0c, 0x60, 0x0c, 0x60, 0x04,
   0x60, 0x04, 0x60, 0x02, 0x00, 0x62, 0xff, 0xff};
