/*  This file is part of Dico
    Copyright (C) 1998-2000, 2008 Sergey Poznyakoff
    See file ../COPYING for copying conditions. */
#define 134_width 16
#define 134_height 16
static unsigned char 134_bits[] = {
   0x1c, 0x0e, 0x0c, 0x06, 0x0c, 0x06, 0x0c, 0x06, 0x4c, 0xc6, 0xfc, 0x66,
   0x0c, 0x1e, 0x0c, 0x06, 0x0c, 0x06, 0x0c, 0x06, 0x0c, 0x46, 0x0c, 0x46,
   0xcc, 0x46, 0x7f, 0xc6, 0x1e, 0xfe, 0x06, 0x7c};
