/*  This file is part of Gjdict
    Copyright (C) 1998-2000, 2008 Sergey Poznyakoff
    See file ../COPYING for copying conditions. */
#define 135_width 16
#define 135_height 16
static unsigned char 135_bits[] = {
   0x80, 0x03, 0x80, 0x01, 0x80, 0x01, 0xb0, 0x41, 0xbf, 0xe1, 0xb0, 0x73,
   0xb0, 0x1b, 0xb0, 0x07, 0x98, 0x05, 0x98, 0x0d, 0x8c, 0x19, 0x84, 0x39,
   0x82, 0xf1, 0x81, 0x61, 0xe0, 0x01, 0xc0, 0x00};
