/*  This file is part of Dico
    Copyright (C) 1998-2000, 2008 Sergey Poznyakoff
    See file ../COPYING for copying conditions. */
#define 138_width 16
#define 138_height 16
static unsigned char 138_bits[] = {
   0x80, 0x03, 0x80, 0x01, 0x80, 0x01, 0x80, 0x0d, 0xf8, 0x1f, 0x00, 0x0c,
   0x00, 0x06, 0x00, 0x13, 0x80, 0x19, 0xc0, 0x07, 0xa0, 0x0d, 0x98, 0x19,
   0x80, 0x19, 0x80, 0x01, 0x80, 0x01, 0x80, 0x01};
