/*  This file is part of Dico
    Copyright (C) 1998-2000, 2008 Sergey Poznyakoff
    See file ../COPYING for copying conditions. */
#define 139_width 16
#define 139_height 16
static unsigned char 139_bits[] = {
   0x38, 0x1c, 0x18, 0x0c, 0x18, 0x0c, 0xfc, 0xfe, 0x3c, 0x36, 0x36, 0x33,
   0xb3, 0x31, 0x30, 0x30, 0x30, 0x30, 0x30, 0x30, 0x30, 0x30, 0x30, 0x30,
   0x30, 0x30, 0x30, 0x30, 0x30, 0x3e, 0x30, 0x18};
