/*  This file is part of Dico
    Copyright (C) 1998-2000, 2008 Sergey Poznyakoff
    See file ../COPYING for copying conditions. */
#define 141_width 16
#define 141_height 16
static unsigned char 141_bits[] = {
   0x80, 0x00, 0x80, 0x13, 0x84, 0x19, 0xc8, 0x38, 0x50, 0x1c, 0x30, 0x0c,
   0x60, 0x26, 0x60, 0x41, 0xff, 0xdf, 0x86, 0xc1, 0x90, 0xc1, 0xb0, 0x0d,
   0xb8, 0x39, 0x98, 0x71, 0x8c, 0x61, 0x86, 0x61};
