/*  This file is part of Gjdict
    Copyright (C) 1998-2000, 2008 Sergey Poznyakoff
    See file ../COPYING for copying conditions. */
#define 142_width 16
#define 142_height 16
static unsigned char 142_bits[] = {
   0x10, 0x00, 0x70, 0x00, 0x30, 0x18, 0xf8, 0x3f, 0x8c, 0x01, 0x82, 0x01,
   0x80, 0x61, 0xff, 0xff, 0x80, 0x01, 0x80, 0x01, 0x9c, 0x71, 0x8c, 0x31,
   0x8c, 0x31, 0x8c, 0x31, 0xfc, 0x3f, 0x0c, 0x30};
