/*  This file is part of Dico
    Copyright (C) 1998-2000, 2008 Sergey Poznyakoff
    See file ../COPYING for copying conditions. */
#define 144_width 16
#define 144_height 16
static unsigned char 144_bits[] = {
   0x10, 0x0c, 0x60, 0x0e, 0x60, 0x22, 0xfe, 0x7f, 0x80, 0x01, 0x80, 0x01,
   0x80, 0x19, 0xfc, 0x3f, 0x80, 0x01, 0x80, 0x01, 0x80, 0x61, 0xff, 0xff,
   0x80, 0x01, 0x80, 0x01, 0x80, 0x01, 0x80, 0x01};
