/*  This file is part of Dico
    Copyright (C) 1998-2000, 2008 Sergey Poznyakoff
    See file ../COPYING for copying conditions. */
#define 145_width 16
#define 145_height 16
static unsigned char 145_bits[] = {
   0x60, 0x60, 0x7f, 0xff, 0x60, 0x60, 0x62, 0x62, 0x64, 0x64, 0x6c, 0x6c,
   0x6c, 0x6c, 0x60, 0x60, 0x70, 0x70, 0x78, 0x78, 0x6c, 0x6c, 0x67, 0x67,
   0x62, 0x62, 0x60, 0x60, 0x7c, 0x7c, 0x30, 0x30};
