/*  This file is part of Dico
    Copyright (C) 1998-2000, 2008 Sergey Poznyakoff
    See file ../COPYING for copying conditions. */
#define 148_width 16
#define 148_height 16
static unsigned char 148_bits[] = {
   0x80, 0x03, 0x80, 0x31, 0xfe, 0x7f, 0x80, 0x01, 0x80, 0x19, 0xfc, 0x3f,
   0x80, 0x01, 0x80, 0x61, 0xff, 0xff, 0xe0, 0x05, 0xe0, 0x0d, 0xb0, 0x0d,
   0xb0, 0x19, 0x98, 0xf9, 0x8c, 0x71, 0x83, 0x21};
