/*  This file is part of Dico
    Copyright (C) 1998-2000, 2008 Sergey Poznyakoff
    See file ../COPYING for copying conditions. */
#define 150_width 16
#define 150_height 16
static unsigned char 150_bits[] = {
   0x80, 0x03, 0x80, 0x31, 0xfc, 0x7f, 0x80, 0x31, 0xff, 0xff, 0x80, 0x31,
   0xfc, 0x3f, 0x80, 0x01, 0x80, 0x31, 0xfc, 0x7f, 0x80, 0x01, 0x80, 0x61,
   0xff, 0xff, 0x80, 0x01, 0x80, 0x01, 0x80, 0x01};
