/*  This file is part of Gjdict
    Copyright (C) 1998-2000, 2008 Sergey Poznyakoff
    See file ../COPYING for copying conditions. */
#define 151_width 16
#define 151_height 16
static unsigned char 151_bits[] = {
   0x80, 0x03, 0x82, 0x61, 0xfe, 0xff, 0x86, 0x61, 0xc6, 0x61, 0x46, 0x63,
   0x66, 0x66, 0xb6, 0x6c, 0x86, 0x60, 0xc6, 0x61, 0x46, 0x63, 0x66, 0x66,
   0x36, 0x6c, 0x06, 0x60, 0x06, 0x7c, 0x06, 0x30};
