/*  This file is part of Dico
    Copyright (C) 1998-2000, 2008 Sergey Poznyakoff
    See file ../COPYING for copying conditions. */
#define 152_width 16
#define 152_height 16
static unsigned char 152_bits[] = {
   0x02, 0x30, 0xfe, 0x7f, 0x86, 0x01, 0x86, 0x01, 0x86, 0x31, 0xfe, 0x7f,
   0x06, 0x30, 0x06, 0x30, 0x06, 0x30, 0xfe, 0x3f, 0x86, 0x31, 0x86, 0x01,
   0x86, 0x01, 0x86, 0x61, 0xfe, 0xff, 0x06, 0x00};
