/*  This file is part of Dico
    Copyright (C) 1998-2000, 2008 Sergey Poznyakoff
    See file ../COPYING for copying conditions. */
#define 153_width 16
#define 153_height 16
static unsigned char 153_bits[] = {
   0xc0, 0x01, 0x42, 0x30, 0xfe, 0x3f, 0x06, 0x30, 0x06, 0x30, 0x06, 0x30,
   0xfe, 0x3f, 0x06, 0x30, 0x06, 0x30, 0x06, 0x30, 0xfe, 0x3f, 0x06, 0x30,
   0x06, 0x30, 0x06, 0x30, 0xfe, 0x3f, 0x06, 0x30};
