/*  This file is part of Gjdict
    Copyright (C) 1998-2000, 2008 Sergey Poznyakoff
    See file ../COPYING for copying conditions. */
#define 154_width 16
#define 154_height 16
static unsigned char 154_bits[] = {
   0x00, 0x60, 0xff, 0xff, 0x00, 0x03, 0x00, 0x03, 0x00, 0x19, 0x80, 0x30,
   0xfe, 0x7f, 0x3c, 0x60, 0x84, 0x03, 0x80, 0x19, 0xfc, 0x3f, 0x80, 0x01,
   0x80, 0x01, 0x80, 0x61, 0xff, 0xff, 0x00, 0x00};
