/*  This file is part of Dico
    Copyright (C) 1998-2000, 2008 Sergey Poznyakoff
    See file ../COPYING for copying conditions. */
#define 155_width 16
#define 155_height 16
static unsigned char 155_bits[] = {
   0xe0, 0x00, 0x72, 0x60, 0x1e, 0x7e, 0x06, 0x60, 0x06, 0x60, 0x06, 0x60,
   0x06, 0x60, 0x36, 0x60, 0x7e, 0x7e, 0x06, 0x60, 0x06, 0x60, 0x06, 0x60,
   0x06, 0x60, 0x06, 0x60, 0xfe, 0x7f, 0x06, 0x60};
