/*  This file is part of Gjdict
    Copyright (C) 1998-2000, 2008 Sergey Poznyakoff
    See file ../COPYING for copying conditions. */
#define 158_width 16
#define 158_height 16
static unsigned char 158_bits[] = {
   0x08, 0x18, 0xf8, 0x3f, 0x18, 0x18, 0xd8, 0x18, 0x98, 0x19, 0x98, 0x19,
   0x18, 0x58, 0xff, 0xff, 0x18, 0x18, 0x98, 0x1b, 0x98, 0x19, 0x98, 0x19,
   0x8c, 0x19, 0x8c, 0x19, 0x06, 0x1e, 0x03, 0x08};
