/*  This file is part of Gjdict
    Copyright (C) 1998-2000, 2008 Sergey Poznyakoff
    See file ../COPYING for copying conditions. */
#define 159_width 16
#define 159_height 16
static unsigned char 159_bits[] = {
   0x04, 0x18, 0xfc, 0x3f, 0x0c, 0x18, 0x0c, 0x18, 0xfc, 0x1f, 0x0c, 0x18,
   0x0c, 0x18, 0xfc, 0x1f, 0x0c, 0x41, 0x0c, 0xe3, 0x0c, 0x72, 0x0c, 0x0e,
   0xcc, 0x1c, 0x7f, 0x38, 0x1e, 0xf0, 0x06, 0x60};
