/*  This file is part of Dico
    Copyright (C) 1998-2000, 2008 Sergey Poznyakoff
    See file ../COPYING for copying conditions. */
#define 16_width 16
#define 16_height 16
static unsigned char 16_bits[] = {
   0x08, 0x02, 0xf8, 0x07, 0x18, 0x03, 0x18, 0x03, 0x18, 0x03, 0x18, 0x03,
   0x18, 0x03, 0x18, 0x03, 0x18, 0x03, 0x18, 0x03, 0x18, 0x03, 0x18, 0x23,
   0x18, 0x23, 0x08, 0x63, 0x04, 0x7f, 0x03, 0x3e};
