/*  This file is part of Gjdict
    Copyright (C) 1998-2000, 2008 Sergey Poznyakoff
    See file ../COPYING for copying conditions. */
#define 160_width 16
#define 160_height 16
static unsigned char 160_bits[] = {
   0x60, 0x06, 0xf0, 0x0f, 0x38, 0x06, 0x0c, 0x33, 0xff, 0x7f, 0x8c, 0x31,
   0x8c, 0x31, 0x8c, 0x31, 0x8c, 0x31, 0xfc, 0x3f, 0x0c, 0x30, 0x0c, 0x40,
   0x0c, 0x40, 0x0c, 0xc0, 0xfc, 0xff, 0xf8, 0x7f};
