/*  This file is part of Dico
    Copyright (C) 1998-2000, 2008 Sergey Poznyakoff
    See file ../COPYING for copying conditions. */
#define 161_width 16
#define 161_height 16
static unsigned char 161_bits[] = {
0x10, 0x10,
0x10, 0x10,
0x10, 0x10,
0x92, 0x92,
0x92, 0x92,
0x92, 0x92,
0x92, 0x92,
0x92, 0x92,
0x92, 0x92,
0xfe, 0xfe,
0x10, 0x10,
0x18, 0x10,
0x08, 0x10,
0x0c, 0x10,
0x06, 0x10,
0x03, 0x10,
};
