/*  This file is part of Dico
    Copyright (C) 1998-2000, 2008 Sergey Poznyakoff
    See file ../COPYING for copying conditions. */
#define 162_width 16
#define 162_height 16
static unsigned char 162_bits[] = {
   0x00, 0x07, 0x00, 0x33, 0x00, 0x7f, 0x00, 0x03, 0x08, 0x63, 0xf8, 0xff,
   0x18, 0x00, 0x18, 0x07, 0x18, 0x03, 0x18, 0x33, 0xe8, 0x7f, 0x0c, 0x03,
   0x04, 0x43, 0x06, 0xc3, 0x03, 0xff, 0x00, 0x7e};
