/*  This file is part of Gjdict
    Copyright (C) 1998-2000, 2008 Sergey Poznyakoff
    See file ../COPYING for copying conditions. */
#define 163_width 16
#define 163_height 16
static unsigned char 163_bits[] = {
   0x80, 0x03, 0x80, 0x01, 0x84, 0x31, 0xfc, 0x7f, 0x8c, 0x31, 0x8c, 0x31,
   0x8c, 0x31, 0x8c, 0x31, 0xfc, 0x3f, 0x8c, 0x31, 0x80, 0x01, 0x80, 0x19,
   0x80, 0x31, 0xff, 0x7f, 0x3e, 0x60, 0x06, 0x00};
