/*  This file is part of Dico
    Copyright (C) 1998-2000, 2008 Sergey Poznyakoff
    See file ../COPYING for copying conditions. */
#define 164_width 16
#define 164_height 16
static unsigned char 164_bits[] = {
   0x80, 0x03, 0x80, 0x01, 0x42, 0x60, 0xfe, 0x7f, 0x66, 0x66, 0x66, 0x66,
   0x66, 0x66, 0x66, 0x66, 0x66, 0x66, 0x66, 0x66, 0x66, 0x66, 0x66, 0x66,
   0x66, 0x66, 0x66, 0x66, 0xff, 0xff, 0x00, 0x00};
