/*  This file is part of Gjdict
    Copyright (C) 1998-2000, 2008 Sergey Poznyakoff
    See file ../COPYING for copying conditions. */
#define 165_width 16
#define 165_height 16
static unsigned char 165_bits[] = {
   0x30, 0x30, 0xb0, 0x7f, 0x18, 0x00, 0x28, 0x00, 0x64, 0x00, 0x73, 0x60,
   0xb8, 0xff, 0x18, 0x18, 0x1c, 0x18, 0x1e, 0x18, 0x19, 0x18, 0x18, 0x18,
   0x18, 0x18, 0x18, 0x18, 0x18, 0x1f, 0x18, 0x0c};
