/*  This file is part of Gjdict
    Copyright (C) 1998-2000, 2008 Sergey Poznyakoff
    See file ../COPYING for copying conditions. */
#define 166_width 16
#define 166_height 16
static unsigned char 166_bits[] = {
   0x80, 0x03, 0x80, 0x01, 0x80, 0x61, 0xff, 0xff, 0xc0, 0x01, 0x60, 0x21,
   0x70, 0xe2, 0x38, 0x72, 0x34, 0x1e, 0x33, 0x06, 0x30, 0x0e, 0x30, 0x1c,
   0xb0, 0x39, 0xfe, 0xf8, 0x3c, 0x70, 0x0c, 0x20};
