/*  This file is part of Gjdict
    Copyright (C) 1998-2000, 2008 Sergey Poznyakoff
    See file ../COPYING for copying conditions. */
#define 169_width 16
#define 169_height 16
static unsigned char 169_bits[] = {
   0x60, 0x06, 0xf0, 0x0f, 0x38, 0x06, 0x0c, 0x73, 0xff, 0x3f, 0x8c, 0x31,
   0x8c, 0x31, 0xfc, 0x3f, 0x8c, 0x31, 0x8c, 0x31, 0xfc, 0x3f, 0x0c, 0x30,
   0x04, 0x30, 0x06, 0x30, 0x02, 0x3c, 0x01, 0x18};
