/*  This file is part of Dico
    Copyright (C) 1998-2000, 2008 Sergey Poznyakoff
    See file ../COPYING for copying conditions. */
#define 17_width 16
#define 17_height 16
static unsigned char 17_bits[] = {
   0x0e, 0xe0, 0x06, 0x60, 0x06, 0x60, 0x06, 0x60, 0x06, 0x60, 0x06, 0x60,
   0x06, 0x60, 0x06, 0x60, 0x06, 0x60, 0x06, 0x60, 0x06, 0x60, 0x06, 0x60,
   0x06, 0x60, 0x06, 0x60, 0xfe, 0x7f, 0x06, 0x60};
