/*  This file is part of Dico
    Copyright (C) 1998-2000, 2008 Sergey Poznyakoff
    See file ../COPYING for copying conditions. */
#define 171_width 16
#define 171_height 16
static unsigned char 171_bits[] = {
   0x20, 0x06, 0x70, 0x1c, 0x38, 0x38, 0x8e, 0x31, 0xc0, 0x01, 0x60, 0x02,
   0x30, 0x0c, 0x1c, 0x38, 0x07, 0xf0, 0x08, 0x18, 0xf8, 0x1f, 0x18, 0x18,
   0x18, 0x18, 0x18, 0x18, 0xf8, 0x1f, 0x18, 0x18};
