/*  This file is part of Dico
    Copyright (C) 1998-2000, 2008 Sergey Poznyakoff
    See file ../COPYING for copying conditions. */
#define 173_width 16
#define 173_height 16
static unsigned char 173_bits[] = {
   0x00, 0x00, 0x00, 0x60, 0xff, 0xff, 0xc0, 0x01, 0xf0, 0x20, 0x3c, 0xe1,
   0x82, 0x73, 0xe0, 0x1b, 0x78, 0x07, 0x0f, 0x07, 0x80, 0x0b, 0xe0, 0x1b,
   0x78, 0x3b, 0x0f, 0xf3, 0xe0, 0x63, 0x80, 0x01};
