/*  This file is part of Dico
    Copyright (C) 1998-2000, 2008 Sergey Poznyakoff
    See file ../COPYING for copying conditions. */
#define 174_width 16
#define 174_height 16
static unsigned char 174_bits[] = {
   0x00, 0x0c, 0x00, 0x27, 0xf8, 0x71, 0x20, 0x3b, 0x60, 0x0e, 0xc0, 0x03,
   0x7c, 0x02, 0x00, 0x07, 0x80, 0x05, 0xe0, 0x0e, 0x3c, 0x0f, 0x80, 0x0d,
   0xe0, 0x0c, 0x3c, 0x0c, 0x80, 0x0f, 0x00, 0x06};
