/*  This file is part of Dico
    Copyright (C) 1998-2000, 2008 Sergey Poznyakoff
    See file ../COPYING for copying conditions. */
#define 175_width 16
#define 175_height 16
static unsigned char 175_bits[] = {
   0x08, 0x18, 0xf8, 0x3f, 0x18, 0x18, 0x18, 0x18, 0xf8, 0x1f, 0x18, 0x18,
   0x18, 0x18, 0xf8, 0x1f, 0x18, 0x18, 0x18, 0x18, 0xf8, 0x1f, 0x18, 0x18,
   0x60, 0x04, 0x70, 0x18, 0x18, 0x30, 0x06, 0x30};
