/*  This file is part of Gjdict
    Copyright (C) 1998-2000, 2008 Sergey Poznyakoff
    See file ../COPYING for copying conditions. */
#define 176_width 16
#define 176_height 16
static unsigned char 176_bits[] = {
   0x80, 0x03, 0x80, 0x01, 0x80, 0x19, 0xfc, 0x3f, 0x80, 0x01, 0x80, 0x61,
   0xff, 0xff, 0x60, 0x06, 0x64, 0x06, 0x7c, 0x16, 0x6c, 0x26, 0x66, 0x66,
   0x32, 0x66, 0x31, 0x06, 0x98, 0x07, 0x0c, 0x03};
