/*  This file is part of Gjdict
    Copyright (C) 1998-2000, 2008 Sergey Poznyakoff
    See file ../COPYING for copying conditions. */
#define 177_width 16
#define 177_height 16
static unsigned char 177_bits[] = {
   0x80, 0x03, 0x80, 0x01, 0x80, 0x19, 0xfc, 0x3f, 0x80, 0x01, 0x80, 0x61,
   0xff, 0xff, 0x88, 0x01, 0xb8, 0x01, 0x98, 0x01, 0x98, 0x19, 0x8c, 0x3f,
   0xb4, 0x01, 0xe2, 0x01, 0xc2, 0xff, 0x01, 0x7e};
