/*  This file is part of Gjdict
    Copyright (C) 1998-2000, 2008 Sergey Poznyakoff
    See file ../COPYING for copying conditions. */
#define 179_width 16
#define 179_height 16
static unsigned char 179_bits[] = {
   0xc0, 0x00, 0x48, 0x18, 0xf8, 0x3f, 0x18, 0x18, 0xf8, 0x1f, 0x18, 0x58,
   0xf8, 0xff, 0x18, 0x78, 0xf8, 0x3f, 0xff, 0x1c, 0x0e, 0x1e, 0x02, 0x1b,
   0xc0, 0x18, 0x30, 0x18, 0x0c, 0x1f, 0x02, 0x0c};
