/*  This file is part of Gjdict
    Copyright (C) 1998-2000, 2008 Sergey Poznyakoff
    See file ../COPYING for copying conditions. */
#define 18_width 16
#define 18_height 16
static unsigned char 18_bits[] = {
   0x00, 0x30, 0xff, 0x7f, 0xc0, 0x30, 0xc0, 0x30, 0xc0, 0x30, 0xc0, 0x30,
   0xc0, 0x30, 0xc0, 0x30, 0x60, 0x30, 0x60, 0x18, 0x60, 0x18, 0x30, 0x18,
   0x30, 0x18, 0x18, 0x0c, 0x88, 0x0f, 0x06, 0x06};
