/*  This file is part of Dico
    Copyright (C) 1998-2000, 2008 Sergey Poznyakoff
    See file ../COPYING for copying conditions. */
#define 181_width 16
#define 181_height 16
static unsigned char 181_bits[] = {
   0x80, 0x03, 0x80, 0x31, 0xfe, 0x7f, 0x10, 0x0c, 0x30, 0x0c, 0x60, 0x06,
   0x60, 0x62, 0xff, 0xff, 0x80, 0x01, 0x80, 0x01, 0x80, 0x31, 0xfe, 0x7f,
   0x80, 0x01, 0x80, 0x01, 0x80, 0x01, 0x80, 0x01};
