/*  This file is part of Gjdict
    Copyright (C) 1998-2000, 2008 Sergey Poznyakoff
    See file ../COPYING for copying conditions. */
#define 182_width 16
#define 182_height 16
static unsigned char 182_bits[] = {
   0x04, 0x60, 0xfc, 0xff, 0x0c, 0x00, 0x0c, 0x18, 0xec, 0x3f, 0x0c, 0x00,
   0x0c, 0x60, 0xfc, 0xff, 0x6c, 0x02, 0x6c, 0x42, 0x6c, 0xe6, 0x6c, 0x34,
   0x66, 0x0c, 0x62, 0x19, 0xfb, 0xf0, 0x30, 0x60};
