/*  This file is part of Gjdict
    Copyright (C) 1998-2000, 2008 Sergey Poznyakoff
    See file ../COPYING for copying conditions. */
#define 183_width 16
#define 183_height 16
static unsigned char 183_bits[] = {
   0xf0, 0x0f, 0x30, 0x0c, 0x30, 0x0c, 0xf0, 0x0f, 0x30, 0x0c, 0x02, 0x60,
   0xfe, 0xff, 0x86, 0x61, 0x86, 0x61, 0x86, 0x61, 0xfe, 0x7f, 0x06, 0x00,
   0x06, 0x40, 0x06, 0xc0, 0xfe, 0xff, 0xfc, 0x7f};
