/*  This file is part of Dico
    Copyright (C) 1998-2000, 2008 Sergey Poznyakoff
    See file ../COPYING for copying conditions. */
#define 184_width 16
#define 184_height 16
static unsigned char 184_bits[] = {
   0x00, 0x60, 0xff, 0xff, 0x30, 0x03, 0x30, 0x03, 0x31, 0x33, 0xff, 0x7f,
   0x33, 0x33, 0x33, 0x33, 0x1b, 0x3f, 0x0f, 0x3e, 0x03, 0x30, 0xff, 0x3f,
   0x03, 0x30, 0x03, 0x30, 0xff, 0x3f, 0x03, 0x30};
