/*  This file is part of Dico
    Copyright (C) 1998-2000, 2008 Sergey Poznyakoff
    See file ../COPYING for copying conditions. */
#define 185_width 16
#define 185_height 16
static unsigned char 185_bits[] = {
   0x00, 0x3e, 0xe0, 0x07, 0xfe, 0x21, 0x84, 0x71, 0x98, 0x31, 0xb0, 0x19,
   0xb0, 0x05, 0x80, 0x61, 0xff, 0xff, 0xb0, 0x0d, 0xb0, 0x19, 0x98, 0x19,
   0x98, 0x31, 0x8c, 0xf1, 0x86, 0xe1, 0x83, 0x41};
