/*  This file is part of Dico
    Copyright (C) 1998-2000, 2008 Sergey Poznyakoff
    See file ../COPYING for copying conditions. */
#define 186_width 16
#define 186_height 16
static unsigned char 186_bits[] = {
   0x04, 0x30, 0xfc, 0x3f, 0x8c, 0x31, 0x8c, 0x31, 0xfc, 0x3f, 0x8c, 0x31,
   0x8c, 0x31, 0xfc, 0x3f, 0x8c, 0x31, 0x80, 0x01, 0x80, 0x19, 0xfc, 0x3f,
   0x80, 0x01, 0x80, 0x01, 0x80, 0x61, 0xff, 0xff};
