/*  This file is part of Gjdict
    Copyright (C) 1998-2000, 2008 Sergey Poznyakoff
    See file ../COPYING for copying conditions. */
#define 189_width 16
#define 189_height 16
static unsigned char 189_bits[] = {
   0x04, 0x70, 0x1c, 0x30, 0x0c, 0x30, 0x6c, 0x30, 0xfe, 0xff, 0x66, 0x33,
   0x63, 0x33, 0x6d, 0x33, 0x38, 0x33, 0x30, 0x33, 0xb0, 0xff, 0x18, 0x30,
   0x0c, 0x30, 0x06, 0x30, 0x01, 0x30, 0x00, 0x30};
