/*  This file is part of Dico
    Copyright (C) 1998-2000, 2008 Sergey Poznyakoff
    See file ../COPYING for copying conditions. */
#define 190_width 16
#define 190_height 16
static unsigned char 190_bits[] = {
   0x80, 0x03, 0x80, 0x21, 0xfe, 0x7f, 0x80, 0x11, 0xfc, 0x3f, 0x80, 0x41,
   0xff, 0xff, 0x60, 0x08, 0xf0, 0x1f, 0x38, 0x0c, 0x3c, 0x06, 0x66, 0x03,
   0xc1, 0x03, 0x70, 0x07, 0x1c, 0x7e, 0x07, 0x38};
