/*  This file is part of Gjdict
    Copyright (C) 1998-2000, 2008 Sergey Poznyakoff
    See file ../COPYING for copying conditions. */
#define 191_width 16
#define 191_height 16
static unsigned char 191_bits[] = {
   0x80, 0x01, 0xc0, 0x01, 0xe0, 0x03, 0x70, 0x06, 0x18, 0x1c, 0x0c, 0x78,
   0xf7, 0xef, 0x80, 0x01, 0x80, 0x31, 0xfe, 0x7f, 0x80, 0x09, 0x98, 0x39,
   0xb0, 0x1d, 0xb0, 0x05, 0x80, 0x61, 0xff, 0xff};
