/*  This file is part of Dico
    Copyright (C) 1998-2000, 2008 Sergey Poznyakoff
    See file ../COPYING for copying conditions. */
#define 192_width 16
#define 192_height 16
static unsigned char 192_bits[] = {
   0x08, 0x10, 0xf8, 0x3f, 0x18, 0x08, 0xf8, 0x1f, 0x18, 0x08, 0xf8, 0x1f,
   0x18, 0x00, 0x18, 0x40, 0xff, 0xff, 0x98, 0x20, 0x98, 0x71, 0x18, 0x1b,
   0x18, 0x06, 0xd8, 0x0c, 0x3e, 0xf8, 0x0c, 0x70};
