/*  This file is part of Dico
    Copyright (C) 1998-2000, 2008 Sergey Poznyakoff
    See file ../COPYING for copying conditions. */
#define 193_width 16
#define 193_height 16
static unsigned char 193_bits[] = {
   0x61, 0xc2, 0xff, 0xfe, 0x63, 0xc6, 0x63, 0xc6, 0x7f, 0xfe, 0x63, 0xc6,
   0x63, 0xc6, 0x7f, 0xfe, 0x03, 0xc0, 0x03, 0xc0, 0x03, 0xc0, 0x03, 0xc0,
   0x03, 0xc0, 0x03, 0xc0, 0x03, 0xf8, 0x03, 0x60};
