/*  This file is part of Gjdict
    Copyright (C) 1998-2000, 2008 Sergey Poznyakoff
    See file ../COPYING for copying conditions. */
#define 194_width 16
#define 194_height 16
static unsigned char 194_bits[] = {
   0x80, 0x03, 0x84, 0x30, 0xfc, 0x7f, 0x0c, 0x30, 0x0c, 0x30, 0xfc, 0x3f,
   0x0c, 0x00, 0xfc, 0x3f, 0x0c, 0x30, 0x0c, 0x30, 0xfc, 0x3f, 0x8c, 0x01,
   0x80, 0x61, 0xff, 0xff, 0x80, 0x01, 0x80, 0x01};
