/*  This file is part of Gjdict
    Copyright (C) 1998-2000, 2008 Sergey Poznyakoff
    See file ../COPYING for copying conditions. */
#define 195_width 16
#define 195_height 16
static unsigned char 195_bits[] = {
   0x80, 0x03, 0x80, 0x31, 0xfc, 0x7f, 0x80, 0x31, 0xff, 0xff, 0x80, 0x31,
   0xfc, 0x3f, 0x82, 0x11, 0x84, 0x71, 0x8c, 0x39, 0xcc, 0x0b, 0xb0, 0x03,
   0x9c, 0x0d, 0x87, 0x39, 0xf2, 0xf1, 0xc0, 0x60};
