/*  This file is part of Dico
    Copyright (C) 1998-2000, 2008 Sergey Poznyakoff
    See file ../COPYING for copying conditions. */
#define 196_width 16
#define 196_height 16
static unsigned char 196_bits[] = {
   0x20, 0x0c, 0x70, 0x0e, 0x30, 0x32, 0xf8, 0x7f, 0x1c, 0x03, 0x1e, 0x13,
   0xfb, 0x3f, 0x18, 0x03, 0x18, 0x03, 0x18, 0x13, 0xf8, 0x3f, 0x18, 0x03,
   0x18, 0x03, 0x18, 0x63, 0xf8, 0xff, 0x18, 0x00};
