/*  This file is part of Gjdict
    Copyright (C) 1998-2000, 2008 Sergey Poznyakoff
    See file ../COPYING for copying conditions. */
#define 197_width 16
#define 197_height 16
static unsigned char 197_bits[] = {
   0x00, 0x30, 0xff, 0xff, 0x80, 0x01, 0x82, 0x61, 0xfe, 0xff, 0x86, 0x61,
   0x96, 0x65, 0xb6, 0x6d, 0xa6, 0x69, 0x86, 0x61, 0x96, 0x65, 0xb6, 0x6d,
   0xa6, 0x69, 0x86, 0x61, 0x86, 0x7d, 0x86, 0x31};
