/*  This file is part of Gjdict
    Copyright (C) 1998-2000, 2008 Sergey Poznyakoff
    See file ../COPYING for copying conditions. */
#define 198_width 16
#define 198_height 16
static unsigned char 198_bits[] = {
   0x80, 0x03, 0x80, 0x21, 0xfe, 0x7f, 0x80, 0x11, 0xfc, 0x3f, 0x80, 0x41,
   0xff, 0xff, 0x08, 0x00, 0xf8, 0x3f, 0x18, 0x30, 0xf8, 0x3f, 0x18, 0x30,
   0xf8, 0x3f, 0x18, 0x30, 0x18, 0x3e, 0x18, 0x18};
