/*  This file is part of Dico
    Copyright (C) 1998-2000, 2008 Sergey Poznyakoff
    See file ../COPYING for copying conditions. */
#define 199_width 16
#define 199_height 16
static unsigned char 199_bits[] = {
   0x70, 0x0e, 0x30, 0x06, 0x30, 0x66, 0x30, 0xfe, 0x3f, 0x06, 0x30, 0x06,
   0x30, 0x36, 0x3f, 0x7e, 0x30, 0x06, 0x30, 0x06, 0x3c, 0x66, 0x37, 0xfe,
   0x13, 0x06, 0x18, 0x06, 0x08, 0x06, 0x06, 0x06};
