/*  This file is part of Dico
    Copyright (C) 1998-2000, 2008 Sergey Poznyakoff
    See file ../COPYING for copying conditions. */
#define 20_width 16
#define 20_height 16
static unsigned char 20_bits[] = {
   0x18, 0x00, 0x18, 0x30, 0xf8, 0x7f, 0x0c, 0x30, 0x04, 0x30, 0x03, 0x30,
   0x00, 0x30, 0x00, 0x30, 0x00, 0x30, 0x00, 0x30, 0x00, 0x30, 0x00, 0x30,
   0x00, 0x18, 0x00, 0x18, 0x80, 0x0f, 0x00, 0x06};
