/*  This file is part of Gjdict
    Copyright (C) 1998-2000, 2008 Sergey Poznyakoff
    See file ../COPYING for copying conditions. */
#define 201_width 16
#define 201_height 16
static unsigned char 201_bits[] = {
   0x80, 0x03, 0x80, 0x61, 0xff, 0xff, 0x10, 0x18, 0x60, 0x06, 0xc0, 0x03,
   0x78, 0x0f, 0x1f, 0xfc, 0xf8, 0x7f, 0x18, 0x18, 0x18, 0x18, 0xf8, 0x1f,
   0x18, 0x18, 0x0c, 0x18, 0x0e, 0x18, 0x03, 0x18};
