/*  This file is part of Gjdict
    Copyright (C) 1998-2000, 2008 Sergey Poznyakoff
    See file ../COPYING for copying conditions. */
#define 202_width 16
#define 202_height 16
static unsigned char 202_bits[] = {
   0x00, 0x60, 0xff, 0xff, 0xc0, 0x00, 0x42, 0x60, 0xfe, 0xff, 0x66, 0x66,
   0x66, 0x66, 0xe6, 0x67, 0x66, 0x66, 0x66, 0x66, 0xe6, 0x67, 0x66, 0x66,
   0x66, 0x66, 0x66, 0x66, 0xfe, 0x7f, 0x06, 0x60};
