/*  This file is part of Dico
    Copyright (C) 1998-2000, 2008 Sergey Poznyakoff
    See file ../COPYING for copying conditions. */
#define 206_width 16
#define 206_height 16
static unsigned char 206_bits[] = {
   0x80, 0x03, 0x80, 0x31, 0xfe, 0x7f, 0x10, 0x0c, 0x70, 0x0c, 0x60, 0x62,
   0xff, 0xff, 0x00, 0x18, 0xf8, 0x3f, 0x18, 0x18, 0x18, 0x18, 0xf8, 0x1f,
   0x18, 0x18, 0x18, 0x18, 0xf8, 0x1f, 0x18, 0x18};
