/*  This file is part of Dico
    Copyright (C) 1998-2000, 2008 Sergey Poznyakoff
    See file ../COPYING for copying conditions. */
#define 208_width 16
#define 208_height 16
static unsigned char 208_bits[] = {
   0x02, 0x30, 0xfe, 0x7f, 0x06, 0x32, 0x06, 0x37, 0xf6, 0x31, 0x86, 0x30,
   0xf6, 0x37, 0x96, 0x34, 0x96, 0x34, 0xf6, 0x37, 0x86, 0x30, 0x86, 0x30,
   0x86, 0x34, 0xc6, 0xaf, 0x7a, 0xe8, 0x03, 0x40};
