/*  This file is part of Gjdict
    Copyright (C) 1998-2000, 2008 Sergey Poznyakoff
    See file ../COPYING for copying conditions. */
#define 209_width 16
#define 209_height 16
static unsigned char 209_bits[] = {
   0x00, 0x0c, 0xfe, 0x5f, 0x00, 0x2c, 0xa0, 0x3d, 0xb8, 0x4d, 0x9e, 0x11,
   0x98, 0xad, 0xff, 0xdf, 0x98, 0x0d, 0x98, 0x2d, 0x98, 0x1d, 0x98, 0x2d,
   0x9c, 0x4d, 0x8c, 0x1d, 0x86, 0xb9, 0x83, 0xe1};
