/*  This file is part of Dico
    Copyright (C) 1998-2000, 2008 Sergey Poznyakoff
    See file ../COPYING for copying conditions. */
#define 21_width 16
#define 21_height 16
static unsigned char 21_bits[] = {
   0x1c, 0x00, 0x0c, 0x00, 0x0c, 0x00, 0x0c, 0x08, 0x0c, 0x0c, 0x0c, 0x1e,
   0x0c, 0x0f, 0x8c, 0x07, 0xcc, 0x01, 0x6c, 0x00, 0x3c, 0x20, 0x0f, 0x20,
   0x0c, 0x20, 0x0c, 0x60, 0xfc, 0x7f, 0xf8, 0x3f};
