/*  This file is part of Gjdict
    Copyright (C) 1998-2000, 2008 Sergey Poznyakoff
    See file ../COPYING for copying conditions. */
#define 210_width 16
#define 210_height 16
static unsigned char 210_bits[] = {
   0x80, 0x00, 0xc0, 0x01, 0x60, 0x03, 0x30, 0x0e, 0x9c, 0x39, 0x87, 0xe0,
   0xf8, 0x0f, 0x18, 0x0c, 0xf8, 0x0f, 0x18, 0x0c, 0xf8, 0x2f, 0x18, 0x71,
   0x18, 0x1b, 0x98, 0x06, 0x78, 0x7c, 0x1e, 0x30};
