/*  This file is part of Dico
    Copyright (C) 1998-2000, 2008 Sergey Poznyakoff
    See file ../COPYING for copying conditions. */
#define 211_width 16
#define 211_height 16
static unsigned char 211_bits[] = {
   0x08, 0x10, 0x38, 0x38, 0x30, 0x4c, 0xff, 0xff, 0x80, 0x01, 0xc4, 0x30,
   0xfc, 0x7f, 0x0c, 0x30, 0x0c, 0x30, 0xfc, 0x3f, 0x0c, 0x30, 0x0c, 0x30,
   0xfc, 0x3f, 0x0c, 0x30, 0x0c, 0x30, 0xfc, 0x3f};
