/*  This file is part of Dico
    Copyright (C) 1998-2000, 2008 Sergey Poznyakoff
    See file ../COPYING for copying conditions. */
#define 212_width 16
#define 212_height 16
static unsigned char 212_bits[] = {
   0x00, 0x1c, 0x00, 0x0f, 0xfc, 0x03, 0x80, 0x61, 0xff, 0xff, 0xe0, 0x05,
   0xf0, 0x0d, 0xb8, 0x39, 0x8c, 0x71, 0xfb, 0xff, 0x18, 0x18, 0x18, 0x18,
   0xf8, 0x1f, 0x18, 0x18, 0x18, 0x18, 0xf8, 0x1f};
