/*  This file is part of Dico
    Copyright (C) 1998-2000, 2008 Sergey Poznyakoff
    See file ../COPYING for copying conditions. */
#define 213_width 16
#define 213_height 16
static unsigned char 213_bits[] = {
   0x04, 0x10, 0xfc, 0x3f, 0x8c, 0x01, 0x8c, 0x09, 0xfc, 0x1f, 0x8c, 0x01,
   0x8c, 0x09, 0xfc, 0x1f, 0x8c, 0x01, 0x8c, 0x61, 0xfc, 0xff, 0x0c, 0x60,
   0x92, 0x64, 0xb3, 0x6d, 0x21, 0x69, 0x00, 0x38};
