/*  This file is part of Dico
    Copyright (C) 1998-2000, 2008 Sergey Poznyakoff
    See file ../COPYING for copying conditions. */
#define 214_width 16
#define 214_height 16
static unsigned char 214_bits[] = {
   0xf8, 0x1f, 0x18, 0x18, 0x98, 0x1f, 0x98, 0x19, 0x9a, 0xd9, 0xff, 0xff,
   0x03, 0x40, 0xfb, 0x5f, 0x18, 0x18, 0xf8, 0x1f, 0x18, 0x18, 0xf8, 0x1f,
   0x18, 0x18, 0x18, 0x18, 0x18, 0x1e, 0x18, 0x0c};
