/*  This file is part of Dico
    Copyright (C) 1998-2000, 2008 Sergey Poznyakoff
    See file ../COPYING for copying conditions. */
#define 215_width 16
#define 215_height 16
static unsigned char 215_bits[] = {
   0x80, 0x01, 0x80, 0x60, 0xff, 0xff, 0x00, 0x00, 0xf8, 0x1f, 0x18, 0x18,
   0xf8, 0x1f, 0x02, 0x60, 0xfe, 0xff, 0x06, 0x60, 0xf6, 0x6f, 0x36, 0x6c,
   0x36, 0x6c, 0xf6, 0x6f, 0x06, 0x60, 0x06, 0x30};
