/*  This file is part of Dico
    Copyright (C) 1998-2000, 2008 Sergey Poznyakoff
    See file ../COPYING for copying conditions. */
#define 216_width 16
#define 216_height 16
static unsigned char 216_bits[] = {
   0x44, 0x20, 0xfc, 0x70, 0x2c, 0x30, 0x7c, 0x18, 0x0c, 0x4c, 0x2c, 0xe6,
   0x7c, 0x60, 0x0c, 0x30, 0x8c, 0x18, 0xff, 0x8d, 0x0c, 0xc6, 0x4c, 0xc0,
   0xc6, 0x60, 0xf2, 0x31, 0x9f, 0x19, 0x02, 0x0e};
