/*  This file is part of Gjdict
    Copyright (C) 1998-2000, 2008 Sergey Poznyakoff
    See file ../COPYING for copying conditions. */
#define 217_width 16
#define 217_height 16
static unsigned char 217_bits[] = {
   0x7b, 0xde, 0x23, 0xc4, 0x7b, 0xde, 0x23, 0xc4, 0x7b, 0xde, 0x03, 0xc0,
   0x03, 0xc0, 0x03, 0xc0, 0x03, 0xc0, 0x03, 0xc0, 0x03, 0xc0, 0x03, 0xc0,
   0x03, 0xc0, 0x03, 0xc0, 0x03, 0xf8, 0x03, 0x60};
