/*  This file is part of Gjdict
    Copyright (C) 1998-2000, 2008 Sergey Poznyakoff
    See file ../COPYING for copying conditions. */
#define 218_width 16
#define 218_height 16
static unsigned char 218_bits[] = {
   0x80, 0x00, 0x0e, 0xe1, 0x26, 0x66, 0x4e, 0x63, 0x96, 0x69, 0xc6, 0x73,
   0x36, 0x66, 0x86, 0x64, 0x06, 0x61, 0xfe, 0x7f, 0x18, 0x00, 0x18, 0x5c,
   0xf8, 0x47, 0x18, 0xc0, 0xf8, 0xff, 0xf0, 0x7f};
