/*  This file is part of Gjdict
    Copyright (C) 1998-2000, 2008 Sergey Poznyakoff
    See file ../COPYING for copying conditions. */
#define 219_width 16
#define 219_height 16
static unsigned char 219_bits[] = {
   0x00, 0x18, 0xfc, 0x3f, 0x00, 0x00, 0xf8, 0x1f, 0x18, 0x18, 0x18, 0x18,
   0xf8, 0x1f, 0x00, 0x00, 0xfc, 0x3f, 0x4c, 0x32, 0x2c, 0x34, 0xec, 0x37,
   0x8c, 0x31, 0x8c, 0x31, 0x8c, 0x3d, 0x8c, 0x19};
