/*  This file is part of Dico
    Copyright (C) 1998-2000, 2008 Sergey Poznyakoff
    See file ../COPYING for copying conditions. */
#define 220_width 16
#define 220_height 16
static unsigned char 220_bits[] = {
   0x80, 0x01, 0xc2, 0x60, 0xfe, 0xff, 0x86, 0x61, 0x86, 0x61, 0xfe, 0x7f,
   0x86, 0x61, 0x86, 0x61, 0xfe, 0x7f, 0x66, 0x13, 0x60, 0x53, 0x70, 0xcb,
   0x30, 0x3b, 0x18, 0x43, 0x0c, 0xff, 0x07, 0x7e};
