/*  This file is part of Dico
    Copyright (C) 1998-2000, 2008 Sergey Poznyakoff
    See file ../COPYING for copying conditions. */
#define 221_width 16
#define 221_height 16
static unsigned char 221_bits[] = {
   0xc0, 0x18, 0xf8, 0x3f, 0x60, 0x18, 0x60, 0x58, 0xff, 0xff, 0x00, 0x00,
   0xf8, 0x1f, 0x18, 0x18, 0xf8, 0x1f, 0x00, 0x06, 0xfc, 0x7f, 0x30, 0x06,
   0x30, 0x46, 0xff, 0xff, 0x00, 0x06, 0x00, 0x06};
