/*  This file is part of Dico
    Copyright (C) 1998-2000, 2008 Sergey Poznyakoff
    See file ../COPYING for copying conditions. */
#define 222_width 16
#define 222_height 16
static unsigned char 222_bits[] = {
   0x80, 0x01, 0x80, 0x20, 0xfe, 0x7f, 0x10, 0x0c, 0x60, 0x42, 0xff, 0xff,
   0x04, 0x00, 0xfc, 0x3f, 0x8c, 0x31, 0xfc, 0x3f, 0x8c, 0x31, 0xfc, 0x3f,
   0x8c, 0x71, 0x80, 0x41, 0x80, 0xff, 0x00, 0x7f};
