/*  This file is part of Dico
    Copyright (C) 1998-2000, 2008 Sergey Poznyakoff
    See file ../COPYING for copying conditions. */
#define 223_width 16
#define 223_height 16
static unsigned char 223_bits[] = {
   0x20, 0x00, 0x60, 0x00, 0xf0, 0x0f, 0x18, 0x06, 0x0c, 0x31, 0xff, 0x7f,
   0x8c, 0x31, 0x8c, 0x31, 0xfc, 0x3f, 0x8c, 0x31, 0x8c, 0x31, 0xfc, 0x3f,
   0x00, 0x00, 0x24, 0x22, 0x66, 0x66, 0x43, 0xc4};
