/*  This file is part of Gjdict
    Copyright (C) 1998-2000, 2008 Sergey Poznyakoff
    See file ../COPYING for copying conditions. */
#define 224_width 16
#define 224_height 16
static unsigned char 224_bits[] = {
   0x80, 0x01, 0x84, 0x18, 0xfc, 0x3f, 0x0c, 0x18, 0xfc, 0x1f, 0x0c, 0x18,
   0xfc, 0x1f, 0x0c, 0x40, 0xfc, 0xff, 0x0c, 0x40, 0xfc, 0xff, 0x02, 0xc0,
   0x92, 0xc4, 0xb3, 0xcd, 0x21, 0x69, 0x00, 0x30};
