/*  This file is part of Gjdict
    Copyright (C) 1998-2000, 2008 Sergey Poznyakoff
    See file ../COPYING for copying conditions. */
#define 225_width 16
#define 225_height 16
static unsigned char 225_bits[] = {
   0x80, 0x03, 0x80, 0x61, 0x80, 0xff, 0x80, 0x01, 0x82, 0x61, 0xfe, 0xff,
   0x86, 0x60, 0x06, 0x65, 0x26, 0x66, 0x4e, 0x63, 0x96, 0x69, 0x46, 0x73,
   0x26, 0x66, 0x86, 0x60, 0x06, 0x61, 0xfe, 0x7f};
