/*  This file is part of Gjdict
    Copyright (C) 1998-2000, 2008 Sergey Poznyakoff
    See file ../COPYING for copying conditions. */
#define 226_width 16
#define 226_height 16
static unsigned char 226_bits[] = {
   0x00, 0x07, 0x04, 0x43, 0xfc, 0xff, 0x0c, 0x00, 0x4c, 0x64, 0xfc, 0xff,
   0x4c, 0x64, 0x4c, 0x64, 0xfc, 0x7f, 0x0c, 0x00, 0x6c, 0x6c, 0xec, 0x3d,
   0x6e, 0x0c, 0x66, 0x4c, 0xe3, 0xfd, 0x38, 0x78};
