/*  This file is part of Gjdict
    Copyright (C) 1998-2000, 2008 Sergey Poznyakoff
    See file ../COPYING for copying conditions. */
#define 227_width 16
#define 227_height 16
static unsigned char 227_bits[] = {
   0x80, 0x03, 0x80, 0x61, 0xff, 0xff, 0x88, 0x11, 0x98, 0x11, 0xd4, 0x29,
   0x62, 0x63, 0x30, 0x06, 0xdc, 0x1c, 0xe7, 0xf7, 0x30, 0x66, 0x1c, 0x06,
   0xe0, 0x02, 0x80, 0x07, 0xe0, 0x1c, 0x3c, 0x38};
