/*  This file is part of Gjdict
    Copyright (C) 1998-2000, 2008 Sergey Poznyakoff
    See file ../COPYING for copying conditions. */
#define 228_width 16
#define 228_height 16
static unsigned char 228_bits[] = {
   0x00, 0x03, 0x82, 0x61, 0xfe, 0xff, 0x06, 0x00, 0x46, 0x10, 0x46, 0x10,
   0xf6, 0xfd, 0x46, 0x10, 0x66, 0x38, 0xe6, 0x38, 0x56, 0x55, 0x56, 0x54,
   0x4f, 0x92, 0x43, 0x10, 0x41, 0x10, 0x40, 0x10};
