/*  This file is part of Gjdict
    Copyright (C) 1998-2000, 2008 Sergey Poznyakoff
    See file ../COPYING for copying conditions. */
#define 229_width 16
#define 229_height 16
static unsigned char 229_bits[] = {
   0x60, 0x06, 0xf0, 0x0f, 0x18, 0x02, 0xfc, 0x1f, 0x9b, 0x19, 0xf8, 0x1f,
   0x98, 0x19, 0xf8, 0x1f, 0x80, 0x01, 0xfc, 0x3f, 0x8c, 0x31, 0xfc, 0x3f,
   0x8c, 0x31, 0xfc, 0xbf, 0x80, 0x81, 0x00, 0xff};
