/*  This file is part of Gjdict
    Copyright (C) 1998-2000, 2008 Sergey Poznyakoff
    See file ../COPYING for copying conditions. */
#define 23_width 16
#define 23_height 16
static unsigned char 23_bits[] = {
   0x00, 0x60, 0xff, 0xff, 0x0c, 0x00, 0x0c, 0x00, 0x0c, 0x00, 0x0c, 0x00,
   0x0c, 0x00, 0x0c, 0x00, 0x0c, 0x00, 0x0c, 0x00, 0x0c, 0x00, 0x0c, 0x00,
   0x0c, 0x00, 0x1c, 0x00, 0xfc, 0xff, 0xf8, 0xff};
