/*  This file is part of Gjdict
    Copyright (C) 1998-2000, 2008 Sergey Poznyakoff
    See file ../COPYING for copying conditions. */
#define 230_width 16
#define 230_height 16
static unsigned char 230_bits[] = {
   0x70, 0x1c, 0x30, 0x0c, 0xfe, 0x7f, 0x30, 0x0c, 0x30, 0x4c, 0xff, 0xff,
   0x80, 0x01, 0xfc, 0x3f, 0x8c, 0x31, 0xfc, 0x3f, 0x8c, 0x31, 0xfc, 0x3f,
   0x10, 0x04, 0x70, 0x38, 0x38, 0x70, 0x0e, 0x60};
