/*  This file is part of Dico
    Copyright (C) 1998-2000, 2008 Sergey Poznyakoff
    See file ../COPYING for copying conditions. */
#define 231_width 16
#define 231_height 16
static unsigned char 231_bits[] = {
0x00, 0x18,
0x00, 0x0f,
0xfc, 0x01,
0x80, 0x00,
0xff, 0xff,
0xa0, 0x04,
0x98, 0x18,
0xc7, 0xe1,
0x70, 0x07,
0x1c, 0x1c,
0x87, 0xf0,
0x98, 0x0c,
0xe0, 0x03,
0x98, 0x1c,
0x87, 0xe0,
0xe0, 0x00,
};