/*  This file is part of Dico
    Copyright (C) 1998-2000, 2008 Sergey Poznyakoff
    See file ../COPYING for copying conditions. */
#define 232_width 16
#define 232_height 16
static unsigned char 232_bits[] = {
0x00, 0x00,
0xfc, 0x3f,
0x84, 0x20,
0x84, 0x20,
0xfc, 0x3f,
0x84, 0x20,
0x84, 0x20,
0xfc, 0x3f,
0x80, 0x00,
0xfc, 0x3f,
0x80, 0x00,
0xff, 0xff,
0x00, 0x00,
0x24, 0x22,
0x66, 0x66,
0x43, 0xc4,
};