/*  This file is part of Gjdict
    Copyright (C) 1998-2000, 2008 Sergey Poznyakoff
    See file ../COPYING for copying conditions. */
#define 233_width 16
#define 233_height 16
static unsigned char 233_bits[] = {
0x44, 0x22,
0x4c, 0x32,
0x48, 0x12,
0xff, 0xff,
0x90, 0x08,
0x98, 0x18,
0x8c, 0x30,
0xff, 0xff,
0x84, 0x20,
0xa4, 0x22,
0xa4, 0x22,
0xa4, 0x22,
0xa4, 0x22,
0xa4, 0x22,
0x94, 0x22,
0x84, 0x38,
};