/*  This file is part of Dico
    Copyright (C) 1998-2000, 2008 Sergey Poznyakoff
    See file ../COPYING for copying conditions. */
#define 234_width 16
#define 234_height 16
static unsigned char 234_bits[] = {
0x00, 0x01,
0x08, 0x01,
0x08, 0x3f,
0x08, 0x01,
0x08, 0x01,
0xff, 0xff,
0x24, 0x24,
0x24, 0x24,
0x54, 0x2a,
0x04, 0x20,
0xfc, 0x3f,
0x24, 0x24,
0x24, 0x24,
0x54, 0x2a,
0x04, 0x20,
0xfc, 0x3f,
};