/*  This file is part of Dico
    Copyright (C) 1998-2000, 2008 Sergey Poznyakoff
    See file ../COPYING for copying conditions. */
#define 235_width 16
#define 235_height 16
static unsigned char 235_bits[] = {
0x00, 0x00,
0xfc, 0x3f,
0x44, 0x22,
0x44, 0x22,
0x7c, 0x3e,
0x40, 0x02,
0x7e, 0x7e,
0x42, 0x42,
0x42, 0x42,
0x7e, 0x7e,
0x42, 0x42,
0x42, 0x42,
0x7e, 0x7e,
0x40, 0x80,
0xc0, 0xc0,
0x80, 0x7f,
};