/*  This file is part of Gjdict
    Copyright (C) 1998-2000, 2008 Sergey Poznyakoff
    See file ../COPYING for copying conditions. */
#define 238_width 16
#define 238_height 16
static unsigned char 238_bits[] = {
0x60, 0x00,
0x3e, 0x7e,
0x02, 0x40,
0x7e, 0x7e,
0x02, 0x40,
0xfe, 0x7f,
0x00, 0x00,
0x84, 0x10,
0x94, 0x12,
0xa4, 0x14,
0x84, 0x10,
0x94, 0x12,
0xa4, 0x34,
0x84, 0xa0,
0x9c, 0xe3,
0xe7, 0x40,
};