/*  This file is part of Gjdict
    Copyright (C) 1998-2000, 2008 Sergey Poznyakoff
    See file ../COPYING for copying conditions. */
#define 239_width 16
#define 239_height 16
static unsigned char 239_bits[] = {
0x40, 0x00,
0xf8, 0x1f,
0x08, 0x10,
0xf8, 0x1f,
0x08, 0x10,
0xf8, 0x1f,
0x08, 0x10,
0xfe, 0x7f,
0x82, 0x40,
0xfe, 0x7f,
0x82, 0x40,
0xfe, 0x7f,
0x10, 0x08,
0xff, 0xff,
0x08, 0x08,
0x06, 0x08,
};