/*  This file is part of Gjdict
    Copyright (C) 1998-2000, 2008 Sergey Poznyakoff
    See file ../COPYING for copying conditions. */
#define 242_width 16
#define 242_height 16
static unsigned char 242_bits[] = {
0x10, 0x02,
0x10, 0x02,
0xfe, 0xfe,
0x44, 0x02,
0x28, 0x7e,
0xff, 0x41,
0x00, 0x7e,
0x7c, 0x02,
0x44, 0x7e,
0x7c, 0x02,
0x44, 0x7e,
0x7c, 0x02,
0x44, 0x7e,
0x44, 0x82,
0x44, 0xc6,
0x64, 0x7c,
};