/*  This file is part of Dico
    Copyright (C) 1998-2000, 2008 Sergey Poznyakoff
    See file ../COPYING for copying conditions. */
#define 243_width 16
#define 243_height 16
static unsigned char 243_bits[] = {
0x20, 0x00,
0xf8, 0x0f,
0x0f, 0x04,
0xfc, 0x3f,
0x44, 0x21,
0x7e, 0x3f,
0x48, 0x01,
0xff, 0x7f,
0x48, 0x41,
0x4e, 0x55,
0x40, 0x49,
0x4e, 0x55,
0x48, 0x41,
0xff, 0x7f,
0x48, 0x80,
0xce, 0xff,
};