/*  This file is part of Gjdict
    Copyright (C) 1998-2000, 2008 Sergey Poznyakoff
    See file ../COPYING for copying conditions. */
#define 244_width 16
#define 244_height 16
static unsigned char 244_bits[] = {
0x80, 0x00,
0xe0, 0x03,
0x38, 0x1e,
0xef, 0xf3,
0x00, 0x00,
0xde, 0x7b,
0x52, 0x4a,
0xde, 0x7b,
0x00, 0x00,
0xfc, 0x3f,
0x24, 0x22,
0x24, 0x22,
0xfc, 0x3f,
0x24, 0x22,
0x24, 0x22,
0x24, 0x32,
};