/*  This file is part of Gjdict
    Copyright (C) 1998-2000, 2008 Sergey Poznyakoff
    See file ../COPYING for copying conditions. */
#define 245_width 16
#define 245_height 16
static unsigned char 245_bits[] = {
   0x70, 0x0e, 0x30, 0x06, 0x30, 0x06, 0x30, 0x06, 0x30, 0x06, 0x30, 0x06,
   0x30, 0x06, 0x30, 0x06, 0x30, 0x06, 0x30, 0x06, 0x18, 0x06, 0x18, 0x46,
   0x0c, 0x46, 0x0c, 0xc6, 0x06, 0xfe, 0x01, 0x7c};
