/*  This file is part of Gjdict
    Copyright (C) 1998-2000, 2008 Sergey Poznyakoff
    See file ../COPYING for copying conditions. */
#define 26_width 16
#define 26_height 16
static unsigned char 26_bits[] = {
   0x10, 0x18, 0xf0, 0x3f, 0x30, 0x18, 0x30, 0x18, 0x30, 0x18, 0x30, 0x18,
   0x30, 0x18, 0x30, 0x18, 0x30, 0x18, 0x30, 0x18, 0x30, 0x1f, 0x30, 0x0c,
   0x30, 0x00, 0x30, 0x00, 0x30, 0x00, 0x30, 0x00};
