/*  This file is part of Dico
    Copyright (C) 1998-2000, 2008 Sergey Poznyakoff
    See file ../COPYING for copying conditions. */
#define 28_width 16
#define 28_height 16
static unsigned char 28_bits[] = {
   0x00, 0x00, 0x80, 0x00, 0x80, 0x03, 0x80, 0x01, 0x80, 0x01, 0xc0, 0x00,
   0xc0, 0x00, 0xc0, 0x00, 0x60, 0x00, 0x60, 0x08, 0x30, 0x10, 0x10, 0x30,
   0x08, 0x7e, 0xfe, 0x61, 0x7e, 0x60, 0x0c, 0x00};
