/*  This file is part of Gjdict
    Copyright (C) 1998-2000, 2008 Sergey Poznyakoff
    See file ../COPYING for copying conditions. */
#define 34_width 16
#define 34_height 16
static unsigned char 34_bits[] = {
   0x20, 0x00, 0xe0, 0x00, 0x70, 0x00, 0x30, 0x0c, 0xf8, 0x1f, 0x18, 0x0c,
   0x34, 0x0e, 0x23, 0x06, 0x60, 0x07, 0xc0, 0x03, 0xc0, 0x01, 0xc0, 0x03,
   0x60, 0x07, 0x30, 0xfe, 0x1c, 0x7c, 0x07, 0x30};
