/*  This file is part of Gjdict
    Copyright (C) 1998-2000, 2008 Sergey Poznyakoff
    See file ../COPYING for copying conditions. */
#define 36_width 16
#define 36_height 16
static unsigned char 36_bits[] = {
   0x80, 0x00, 0x80, 0x03, 0x80, 0x31, 0xc0, 0x7f, 0xc0, 0x38, 0x60, 0x38,
   0x58, 0x18, 0x80, 0x1d, 0x80, 0x0d, 0x00, 0x0e, 0x00, 0x06, 0x00, 0x03,
   0x80, 0x01, 0x60, 0x00, 0x1c, 0x00, 0x00, 0x00};
