/*  This file is part of Gjdict
    Copyright (C) 1998-2000, 2008 Sergey Poznyakoff
    See file ../COPYING for copying conditions. */
#define 38_width 16
#define 38_height 16
static unsigned char 38_bits[] = {
   0xe0, 0x00, 0x60, 0x00, 0x60, 0x00, 0x30, 0x60, 0xff, 0xff, 0x30, 0x06,
   0x18, 0x06, 0x18, 0x06, 0x1c, 0x03, 0x6c, 0x03, 0x8c, 0x01, 0x80, 0x07,
   0xe0, 0x1c, 0x70, 0x38, 0x1c, 0x70, 0x07, 0x60};
