/*  This file is part of Dico
    Copyright (C) 1998-2000, 2008 Sergey Poznyakoff
    See file ../COPYING for copying conditions. */
#define 39_width 16
#define 39_height 16
static unsigned char 39_bits[] = {
   0x00, 0x08, 0xfc, 0x1f, 0x00, 0x0e, 0x00, 0x06, 0x00, 0x03, 0x80, 0x01,
   0x80, 0x41, 0xff, 0xff, 0x80, 0x01, 0x80, 0x01, 0x80, 0x01, 0x80, 0x01,
   0x80, 0x01, 0x80, 0x01, 0xf0, 0x01, 0xc0, 0x00};
