/*  This file is part of Gjdict
    Copyright (C) 1998-2000, 2008 Sergey Poznyakoff
    See file ../COPYING for copying conditions. */
#define 4_width 16
#define 4_height 16
static unsigned char 4_bits[] = {
   0x00, 0x00, 0x80, 0x03, 0x80, 0x01, 0x80, 0x01, 0x80, 0x01, 0x80, 0x01,
   0x80, 0x01, 0x80, 0x01, 0x80, 0x01, 0xc0, 0x00, 0xc0, 0x00, 0xc0, 0x00,
   0x60, 0x00, 0x60, 0x00, 0x30, 0x00, 0x0c, 0x00};
