/*  This file is part of Dico
    Copyright (C) 1998-2000, 2008 Sergey Poznyakoff
    See file ../COPYING for copying conditions. */
#define 40_width 16
#define 40_height 16
static unsigned char 40_bits[] = {
   0x00, 0x00, 0x00, 0x00, 0x00, 0x00, 0x00, 0x00, 0x80, 0x03, 0x80, 0x01,
   0x88, 0x21, 0xfc, 0x7f, 0x06, 0x30, 0x03, 0x08, 0x00, 0x00, 0x00, 0x00,
   0x00, 0x00, 0x00, 0x00, 0x00, 0x00, 0x00, 0x00};
