/*  This file is part of Gjdict
    Copyright (C) 1998-2000, 2008 Sergey Poznyakoff
    See file ../COPYING for copying conditions. */
#define 42_width 16
#define 42_height 16
static unsigned char 42_bits[] = {
   0x80, 0x01, 0x80, 0x01, 0x80, 0x01, 0x80, 0x01, 0x80, 0x01, 0x88, 0x09,
   0x98, 0x11, 0x9c, 0x31, 0x8c, 0x61, 0x86, 0xe1, 0x82, 0xc1, 0x81, 0xc1,
   0x80, 0x01, 0x80, 0x01, 0xf0, 0x01, 0xc0, 0x00};
