/*  This file is part of Dico
    Copyright (C) 1998-2000, 2008 Sergey Poznyakoff
    See file ../COPYING for copying conditions. */
#define 43_width 16
#define 43_height 16
static unsigned char 43_bits[] = {
   0xc0, 0x01, 0xc0, 0x00, 0xc0, 0x00, 0xc0, 0x00, 0xc0, 0x40, 0xff, 0xff,
   0x60, 0x03, 0x60, 0x03, 0x70, 0x03, 0x30, 0x03, 0x38, 0x03, 0x18, 0x43,
   0x1c, 0x43, 0x0c, 0xc3, 0x06, 0xc3, 0x03, 0x7e};
