/*  This file is part of Gjdict
    Copyright (C) 1998-2000, 2008 Sergey Poznyakoff
    See file ../COPYING for copying conditions. */
#define 44_width 16
#define 44_height 16
static unsigned char 44_bits[] = {
   0x08, 0x60, 0xf8, 0xff, 0x18, 0x60, 0x18, 0x60, 0x18, 0x60, 0x18, 0x60,
   0xf8, 0x7f, 0x18, 0x60, 0x18, 0x00, 0x18, 0x00, 0x18, 0x00, 0x18, 0x00,
   0x0c, 0x00, 0x0c, 0x00, 0x06, 0x00, 0x03, 0x00};
