/*  This file is part of Dico
    Copyright (C) 1998-2000, 2008 Sergey Poznyakoff
    See file ../COPYING for copying conditions. */
#define 45_width 16
#define 45_height 16
static unsigned char 45_bits[] = {
   0x80, 0x03, 0x80, 0x01, 0x80, 0x01, 0x8e, 0xe1, 0x86, 0x61, 0x86, 0x61,
   0x86, 0x61, 0x86, 0x61, 0x86, 0x61, 0xfe, 0x7f, 0x86, 0x61, 0x80, 0x01,
   0xc0, 0x00, 0xc0, 0x00, 0x60, 0x00, 0x1c, 0x00};
