/*  This file is part of Dico
    Copyright (C) 1998-2000, 2008 Sergey Poznyakoff
    See file ../COPYING for copying conditions. */
#define 47_width 16
#define 47_height 16
static unsigned char 47_bits[] = {
   0x00, 0x00, 0x38, 0xe0, 0x18, 0x67, 0x18, 0x63, 0x18, 0x63, 0x18, 0x63,
   0x18, 0x63, 0x18, 0x63, 0x18, 0x63, 0x18, 0x63, 0x18, 0x63, 0x0c, 0x63,
   0x0c, 0x63, 0x06, 0x60, 0x02, 0x60, 0x01, 0x60};
