/*  This file is part of Gjdict
    Copyright (C) 1998-2000, 2008 Sergey Poznyakoff
    See file ../COPYING for copying conditions. */
#define 49_width 16
#define 49_height 16
static unsigned char 49_bits[] = {
   0x00, 0x30, 0xfe, 0x7f, 0x00, 0x30, 0x00, 0x30, 0x00, 0x30, 0x02, 0x30,
   0xfe, 0x3f, 0x06, 0x30, 0x06, 0x00, 0x06, 0x00, 0x06, 0x00, 0x06, 0x40,
   0x06, 0x40, 0x0e, 0xe0, 0xfe, 0xff, 0xfc, 0x7f};
