/*  This file is part of Gjdict
    Copyright (C) 1998-2000, 2008 Sergey Poznyakoff
    See file ../COPYING for copying conditions. */
#define 5_width 16
#define 5_height 16
static unsigned char 5_bits[] = {
   0x00, 0x00, 0x00, 0x18, 0xf8, 0x3f, 0x00, 0x1c, 0x00, 0x0e, 0x00, 0x07,
   0x80, 0x03, 0xc0, 0x01, 0xe0, 0x00, 0x70, 0x20, 0x38, 0x20, 0x18, 0x60,
   0x18, 0x70, 0xf8, 0x3f, 0xf0, 0x0f, 0x00, 0x00};
