/*  This file is part of Gjdict
    Copyright (C) 1998-2000, 2008 Sergey Poznyakoff
    See file ../COPYING for copying conditions. */
#define 50_width 16
#define 50_height 16
static unsigned char 50_bits[] = {
   0x80, 0x03, 0x80, 0x01, 0x80, 0x01, 0x82, 0x61, 0xfe, 0xff, 0x86, 0x61,
   0x86, 0x61, 0x86, 0x61, 0x86, 0x61, 0x86, 0x61, 0x86, 0x61, 0x86, 0x61,
   0x86, 0x79, 0x80, 0x31, 0x80, 0x01, 0x80, 0x01};
