/*  This file is part of Gjdict
    Copyright (C) 1998-2000, 2008 Sergey Poznyakoff
    See file ../COPYING for copying conditions. */
#define 52_width 16
#define 52_height 16
static unsigned char 52_bits[] = {
   0x80, 0x00, 0xc0, 0x01, 0xe0, 0x00, 0x60, 0x04, 0x30, 0x1c, 0x1a, 0x0e,
   0x0c, 0x06, 0x18, 0x07, 0x38, 0x03, 0xb0, 0x01, 0xc0, 0x08, 0x60, 0x10,
   0x30, 0x3f, 0xfe, 0x61, 0x1c, 0xc0, 0x04, 0x00};
