/*  This file is part of Gjdict
    Copyright (C) 1998-2000, 2008 Sergey Poznyakoff
    See file ../COPYING for copying conditions. */
#define 53_width 16
#define 53_height 16
static unsigned char 53_bits[] = {
   0x00, 0x07, 0x00, 0x03, 0x04, 0x43, 0xfc, 0xff, 0x0c, 0x00, 0x0c, 0x00,
   0x0c, 0x00, 0x0c, 0x00, 0x0c, 0x00, 0x0c, 0x00, 0x0c, 0x00, 0x06, 0x00,
   0x06, 0x00, 0x02, 0x00, 0x03, 0x00, 0x00, 0x00};
