/*  This file is part of Gjdict
    Copyright (C) 1998-2000, 2008 Sergey Poznyakoff
    See file ../COPYING for copying conditions. */
#define 54_width 16
#define 54_height 16
static unsigned char 54_bits[] = {
   0x30, 0x00, 0x7f, 0x00, 0x30, 0x00, 0x18, 0x00, 0x0c, 0x00, 0x3e, 0x00,
   0x30, 0x00, 0x32, 0x00, 0x1a, 0x00, 0x1a, 0x00, 0x0e, 0x00, 0x04, 0x00,
   0x0c, 0x00, 0x16, 0x00, 0xf2, 0xff, 0xe1, 0x7f};
