/*  This file is part of Dico
    Copyright (C) 1998-2000, 2008 Sergey Poznyakoff
    See file ../COPYING for copying conditions. */
#define 56_width 16
#define 56_height 16
static unsigned char 56_bits[] = {
   0xc0, 0x09, 0xc0, 0x18, 0xc0, 0x10, 0xc0, 0x40, 0xff, 0xff, 0xc0, 0x00,
   0xc0, 0x00, 0xc0, 0x01, 0x80, 0x01, 0x80, 0x03, 0x00, 0x03, 0x00, 0x47,
   0x00, 0x4e, 0x00, 0xfc, 0x00, 0xf8, 0x00, 0x60};
