/*  This file is part of Gjdict
    Copyright (C) 1998-2000, 2008 Sergey Poznyakoff
    See file ../COPYING for copying conditions. */
#define 57_width 16
#define 57_height 16
static unsigned char 57_bits[] = {
   0x00, 0x30, 0xfe, 0x7f, 0x00, 0x30, 0x04, 0x30, 0xfc, 0x3f, 0x0c, 0x30,
   0x0c, 0x00, 0x0c, 0x60, 0xfe, 0xff, 0x06, 0x60, 0x06, 0x60, 0x00, 0x60,
   0x00, 0x70, 0x00, 0x30, 0x00, 0x3f, 0x00, 0x1c};
