/*  This file is part of Dico
    Copyright (C) 1998-2000, 2008 Sergey Poznyakoff
    See file ../COPYING for copying conditions. */
#define 58_width 16
#define 58_height 16
static unsigned char 58_bits[] = {
   0xe0, 0x00, 0x60, 0x00, 0x60, 0x00, 0x60, 0x18, 0xf0, 0x3f, 0x30, 0x18,
   0x30, 0x1c, 0x30, 0x0c, 0x38, 0x0c, 0x18, 0x0c, 0xf8, 0x0f, 0x0c, 0x06,
   0x0c, 0x06, 0x00, 0x03, 0x00, 0x43, 0xff, 0xff};
