/*  This file is part of Gjdict
    Copyright (C) 1998-2000, 2008 Sergey Poznyakoff
    See file ../COPYING for copying conditions. */
#define 60_width 16
#define 60_height 16
static unsigned char 60_bits[] = {
   0x00, 0x02, 0x00, 0x0e, 0x00, 0x07, 0x80, 0x03, 0xe0, 0x05, 0x70, 0x1c,
   0x1c, 0x0e, 0x00, 0x07, 0xc0, 0x03, 0xf0, 0x01, 0x9c, 0x01, 0x80, 0x01,
   0x80, 0x01, 0x80, 0x01, 0x80, 0x01, 0x80, 0x01};
