/*  This file is part of Dico
    Copyright (C) 1998-2000, 2008 Sergey Poznyakoff
    See file ../COPYING for copying conditions. */
#define 61_width 16
#define 61_height 16
static unsigned char 61_bits[] = {
   0xc0, 0x01, 0xc0, 0x00, 0xc0, 0x00, 0xc0, 0x00, 0xc0, 0x00, 0xd0, 0x02,
   0xd0, 0x06, 0xd8, 0x06, 0xdc, 0x00, 0xcc, 0x00, 0xc0, 0x00, 0xc0, 0x00,
   0xc0, 0x00, 0xc0, 0x00, 0xc0, 0x00, 0xc0, 0x00};
