/*  This file is part of Gjdict
    Copyright (C) 1998-2000, 2008 Sergey Poznyakoff
    See file ../COPYING for copying conditions. */
#define 62_width 16
#define 62_height 16
static unsigned char 62_bits[] = {
   0x80, 0x03, 0x80, 0x01, 0x80, 0x01, 0x80, 0x05, 0xf0, 0x0f, 0x80, 0x01,
   0x80, 0x01, 0x80, 0x09, 0x80, 0x07, 0xf0, 0x01, 0xa0, 0x01, 0x80, 0x01,
   0x80, 0x01, 0x80, 0x01, 0xf0, 0x01, 0xc0, 0x00};
