/*  This file is part of Dico
    Copyright (C) 1998-2000, 2008 Sergey Poznyakoff
    See file ../COPYING for copying conditions. */
#define 64_width 16
#define 64_height 16
static unsigned char 64_bits[] = {
   0x00, 0x02, 0x20, 0x06, 0x40, 0x03, 0x80, 0x01, 0xc0, 0x01, 0x20, 0x03,
   0x00, 0x03, 0x80, 0x07, 0x80, 0x06, 0x40, 0x06, 0x20, 0x06, 0x00, 0x06,
   0x00, 0x06, 0x00, 0x02, 0xe0, 0x03, 0x80, 0x01};
