/*  This file is part of Gjdict
    Copyright (C) 1998-2000, 2008 Sergey Poznyakoff
    See file ../COPYING for copying conditions. */
#define 67_width 16
#define 67_height 16
static unsigned char 67_bits[] = {
   0x00, 0x31, 0x00, 0x7f, 0x00, 0x33, 0x00, 0x33, 0x00, 0x13, 0x00, 0x1b,
   0x00, 0x0b, 0x00, 0x13, 0x00, 0x23, 0x00, 0x63, 0x00, 0x63, 0x00, 0x63,
   0x00, 0x63, 0x00, 0x7b, 0x00, 0x33, 0x00, 0x03};
