/*  This file is part of Dico
    Copyright (C) 1998-2000, 2008 Sergey Poznyakoff
    See file ../COPYING for copying conditions. */
#define 68_width 16
#define 68_height 16
static unsigned char 68_bits[] = {
   0x62, 0x00, 0xfe, 0x00, 0x66, 0x00, 0x66, 0x00, 0x26, 0x00, 0x36, 0x00,
   0x16, 0x00, 0x26, 0x00, 0x46, 0x00, 0xc6, 0x00, 0xc6, 0x00, 0xc6, 0x00,
   0xf6, 0x00, 0x66, 0x00, 0x06, 0x00, 0x06, 0x00};
