/*  This file is part of Gjdict
    Copyright (C) 1998-2000, 2008 Sergey Poznyakoff
    See file ../COPYING for copying conditions. */
#define 69_width 16
#define 69_height 16
static unsigned char 69_bits[] = {
   0x80, 0x00, 0x00, 0x03, 0x00, 0x06, 0xe0, 0x0e, 0x60, 0x0c, 0x60, 0x00,
   0x64, 0x00, 0x64, 0x10, 0x64, 0x60, 0x66, 0x60, 0x66, 0xc8, 0x63, 0xc8,
   0x63, 0x18, 0xe0, 0x1f, 0xc0, 0x0f, 0x00, 0x00};
