/*  This file is part of Dico
    Copyright (C) 1998-2000, 2008 Sergey Poznyakoff
    See file ../COPYING for copying conditions. */
#define 7_width 16
#define 7_height 16
static unsigned char 7_bits[] = {
   0x00, 0x00, 0x00, 0x00, 0x00, 0x18, 0xfc, 0x3f, 0x00, 0x00, 0x00, 0x00,
   0x00, 0x00, 0x00, 0x00, 0x00, 0x00, 0x00, 0x00, 0x00, 0x00, 0x00, 0x60,
   0xff, 0xff, 0x00, 0x00, 0x00, 0x00, 0x00, 0x00};
