/*  This file is part of Gjdict
    Copyright (C) 1998-2000, 2008 Sergey Poznyakoff
    See file ../COPYING for copying conditions. */
#define 70_width 16
#define 70_height 16
static unsigned char 70_bits[] = {
   0xe0, 0x0c, 0x60, 0x18, 0x60, 0x18, 0x60, 0x40, 0xff, 0xff, 0x60, 0x00,
   0x60, 0x20, 0xe0, 0x70, 0xc0, 0x38, 0xc0, 0x1d, 0x80, 0x0f, 0x00, 0x47,
   0x80, 0x4f, 0xc0, 0xdd, 0x70, 0xf8, 0x1e, 0x60};
