/*  This file is part of Gjdict
    Copyright (C) 1998-2000, 2008 Sergey Poznyakoff
    See file ../COPYING for copying conditions. */
#define 71_width 16
#define 71_height 16
static unsigned char 71_bits[] = {
   0x00, 0x60, 0xff, 0xff, 0x00, 0x00, 0x04, 0x30, 0xfc, 0x7f, 0x0c, 0x30,
   0x0c, 0x30, 0x0c, 0x30, 0xfc, 0x3f, 0x0c, 0x00, 0x0c, 0x00, 0x0c, 0x00,
   0x06, 0x00, 0x06, 0x00, 0x02, 0x00, 0x03, 0x00};
