/*  This file is part of Dico
    Copyright (C) 1998-2000, 2008 Sergey Poznyakoff
    See file ../COPYING for copying conditions. */
#define 74_width 16
#define 74_height 16
static unsigned char 74_bits[] = {
   0x80, 0x03, 0x80, 0x01, 0x80, 0x61, 0x80, 0xff, 0x80, 0x01, 0x80, 0x19,
   0xfe, 0x3f, 0x10, 0x18, 0x30, 0x1c, 0x20, 0x0e, 0x60, 0x07, 0xc0, 0x03,
   0xe0, 0x07, 0x70, 0xfe, 0x1c, 0x7c, 0x07, 0x30};
