/*  This file is part of Dico
    Copyright (C) 1998-2000, 2008 Sergey Poznyakoff
    See file ../COPYING for copying conditions. */
#define 78_width 16
#define 78_height 16
static unsigned char 78_bits[] = {
   0x80, 0x03, 0x80, 0x01, 0x80, 0x61, 0xff, 0xff, 0xc0, 0x00, 0xc0, 0x00,
   0xc0, 0x18, 0xc0, 0x3f, 0xe0, 0x18, 0x60, 0x18, 0x60, 0x18, 0x30, 0x18,
   0x30, 0x1c, 0x18, 0x0c, 0x0c, 0x0f, 0x07, 0x06};
