/*  This file is part of Gjdict
    Copyright (C) 1998-2000, 2008 Sergey Poznyakoff
    See file ../COPYING for copying conditions. */
#define 79_width 16
#define 79_height 16
static unsigned char 79_bits[] = {
   0x00, 0x30, 0xfe, 0x7f, 0x18, 0x03, 0x18, 0x03, 0x18, 0x03, 0x18, 0x63,
   0xff, 0xff, 0x80, 0x01, 0x80, 0x01, 0x80, 0x0f, 0xc0, 0x06, 0xc0, 0x46,
   0x60, 0x46, 0x30, 0xc6, 0x1c, 0xfe, 0x07, 0x7c};
