/*  This file is part of Gjdict
    Copyright (C) 1998-2000, 2008 Sergey Poznyakoff
    See file ../COPYING for copying conditions. */
#define 81_width 16
#define 81_height 16
static unsigned char 81_bits[] = {
   0x02, 0x60, 0xfe, 0xff, 0x06, 0x60, 0x06, 0x60, 0x06, 0x60, 0x06, 0x60,
   0x06, 0x66, 0xfe, 0x6f, 0x06, 0x60, 0x06, 0x60, 0x06, 0x60, 0x06, 0x60,
   0x06, 0x60, 0x06, 0x60, 0xfe, 0x7f, 0x06, 0x60};
