/*  This file is part of Gjdict
    Copyright (C) 1998-2000, 2008 Sergey Poznyakoff
    See file ../COPYING for copying conditions. */
#define 82_width 16
#define 82_height 16
static unsigned char 82_bits[] = {
   0x08, 0x18, 0xf8, 0x3f, 0x18, 0x18, 0x18, 0x18, 0x18, 0x18, 0xf8, 0x1f,
   0x18, 0x18, 0x18, 0x18, 0x18, 0x18, 0xf8, 0x1f, 0x18, 0x18, 0x18, 0x18,
   0x0c, 0x18, 0x0c, 0x18, 0x06, 0x1f, 0x03, 0x0c};
