/*  This file is part of Dico
    Copyright (C) 1998-2000, 2008 Sergey Poznyakoff
    See file ../COPYING for copying conditions. */
#define 84_width 16
#define 84_height 16
static unsigned char 84_bits[] = {
   0x70, 0x00, 0x30, 0x60, 0xf8, 0x7f, 0x18, 0x60, 0x8c, 0x33, 0x86, 0x11,
   0x83, 0x09, 0x80, 0x01, 0xc0, 0x01, 0xc0, 0x02, 0xe0, 0x02, 0x60, 0x06,
   0x30, 0x1c, 0x18, 0x78, 0x0c, 0xf0, 0x07, 0x60};
