/*  This file is part of Gjdict
    Copyright (C) 1998-2000, 2008 Sergey Poznyakoff
    See file ../COPYING for copying conditions. */
#define 85_width 16
#define 85_height 16
static unsigned char 85_bits[] = {
   0x00, 0x07, 0x00, 0x03, 0x00, 0x03, 0x00, 0x03, 0x38, 0x03, 0x18, 0x33,
   0x18, 0x7f, 0x18, 0x03, 0x18, 0x03, 0x18, 0x03, 0x18, 0x03, 0x18, 0x03,
   0x18, 0x03, 0x18, 0x63, 0xff, 0xff, 0x00, 0x00};
