/*  This file is part of Gjdict
    Copyright (C) 1998-2000, 2008 Sergey Poznyakoff
    See file ../COPYING for copying conditions. */
#define 86_width 16
#define 86_height 16
static unsigned char 86_bits[] = {
   0x00, 0x00, 0x00, 0x18, 0xfc, 0x3f, 0x80, 0x01, 0xc0, 0x00, 0xc0, 0x10,
   0xe0, 0x3f, 0x60, 0x18, 0x30, 0x0c, 0xcc, 0x0c, 0x80, 0x06, 0x00, 0x03,
   0x80, 0x01, 0xc0, 0x00, 0x30, 0x00, 0x0c, 0x00};
