/*  This file is part of Dico
    Copyright (C) 1998-2000, 2008 Sergey Poznyakoff
    See file ../COPYING for copying conditions. */
#define 87_width 16
#define 87_height 16
static unsigned char 87_bits[] = {
   0x10, 0x06, 0xf0, 0x0f, 0x30, 0x06, 0x30, 0x06, 0x38, 0x7e, 0x18, 0x7c,
   0x0c, 0x00, 0x06, 0x18, 0xf8, 0x3f, 0x20, 0x18, 0x60, 0x0c, 0xc0, 0x06,
   0x80, 0x07, 0xe0, 0x0e, 0x38, 0xfc, 0x0f, 0x30};
