/*  This file is part of Gjdict
    Copyright (C) 1998-2000, 2008 Sergey Poznyakoff
    See file ../COPYING for copying conditions. */
#define 89_width 16
#define 89_height 16
static unsigned char 89_bits[] = {
   0x1c, 0x0e, 0x0c, 0x06, 0x0c, 0x06, 0x0c, 0xc6, 0x4c, 0xe6, 0xfc, 0x3e,
   0x0c, 0x0e, 0x0c, 0x06, 0x0c, 0x06, 0x0c, 0x06, 0x0c, 0x06, 0x0c, 0x46,
   0x0c, 0x46, 0x7c, 0xc6, 0x1f, 0xfe, 0x07, 0x7c};
