/*  This file is part of Dico
    Copyright (C) 1998-2000, 2008 Sergey Poznyakoff
    See file ../COPYING for copying conditions. */
#define 90_width 16
#define 90_height 16
static unsigned char 90_bits[] = {
   0x00, 0x1c, 0x80, 0x0f, 0xfc, 0x01, 0xc0, 0x00, 0xc0, 0x30, 0xfe, 0x7f,
   0xc0, 0x00, 0xc0, 0x00, 0xc0, 0x60, 0xff, 0xff, 0xc0, 0x00, 0xc0, 0x00,
   0xc0, 0x40, 0xc0, 0xc0, 0xc0, 0xff, 0x80, 0x7f};
