/*  This file is part of Dico
    Copyright (C) 1998-2000, 2008 Sergey Poznyakoff
    See file ../COPYING for copying conditions. */
#define 91_width 16
#define 91_height 16
static unsigned char 91_bits[] = {
   0x00, 0x38, 0x04, 0x1f, 0xfc, 0x03, 0x0c, 0x03, 0x0c, 0x03, 0x0c, 0x03,
   0x0c, 0x63, 0xfc, 0xff, 0x0c, 0x03, 0x0c, 0x07, 0x0c, 0x06, 0x0c, 0x46,
   0x0c, 0x4e, 0x6c, 0xcc, 0x1e, 0xfc, 0x07, 0x78};
