/*  This file is part of Gjdict
    Copyright (C) 1998-2000, 2008 Sergey Poznyakoff
    See file ../COPYING for copying conditions. */
#define 92_width 16
#define 92_height 16
static unsigned char 92_bits[] = {
   0x18, 0x00, 0x18, 0x30, 0xfc, 0x7f, 0x0c, 0x00, 0xf6, 0x0f, 0x03, 0x00,
   0xf8, 0x1f, 0x00, 0x0c, 0x00, 0x0c, 0x00, 0x0c, 0x00, 0x0c, 0x00, 0x4c,
   0x00, 0x5c, 0x00, 0x58, 0x00, 0xf8, 0x00, 0xf0};
