/*  This file is part of Gjdict
    Copyright (C) 1998-2000, 2008 Sergey Poznyakoff
    See file ../COPYING for copying conditions. */
#define 94_width 16
#define 94_height 16
static unsigned char 94_bits[] = {
   0x80, 0x03, 0x80, 0x01, 0x80, 0x01, 0x80, 0x61, 0x88, 0x61, 0x88, 0x21,
   0x8c, 0x11, 0x86, 0x01, 0x86, 0x01, 0xc0, 0x02, 0xc0, 0x02, 0x60, 0x06,
   0x60, 0x0c, 0x18, 0x38, 0x0c, 0xf0, 0x03, 0x40};
