/*  This file is part of Gjdict
    Copyright (C) 1998-2000, 2008 Sergey Poznyakoff
    See file ../COPYING for copying conditions. */
#define 95_width 16
#define 95_height 16
static unsigned char 95_bits[] = {
   0x00, 0x3c, 0x04, 0x1f, 0xfc, 0x09, 0x0c, 0x08, 0xcc, 0x09, 0xcc, 0x08,
   0xcc, 0x08, 0xcc, 0x08, 0xcc, 0x08, 0xcc, 0x08, 0xcc, 0x10, 0xcc, 0x10,
   0xce, 0x30, 0xc6, 0x70, 0xc2, 0xe0, 0xc3, 0x60};
