/*  This file is part of Gjdict
    Copyright (C) 1998-2000, 2008 Sergey Poznyakoff
    See file ../COPYING for copying conditions. */
#define 97_width 16
#define 97_height 16
static unsigned char 97_bits[] = {
   0x18, 0x18, 0xe0, 0x3c, 0x80, 0x0f, 0x80, 0x0f, 0xc0, 0x1d, 0x70, 0x38,
   0x0c, 0x30, 0x00, 0x0c, 0x30, 0x0c, 0x20, 0x0e, 0x60, 0x07, 0xc0, 0x03,
   0xe0, 0x07, 0x70, 0xfe, 0x1c, 0x7c, 0x07, 0x30};
