#define gjdict_width 48
#define gjdict_height 48
static unsigned char gjdict_bits[] = {
   0x00, 0x00, 0x00, 0x00, 0x00, 0x00, 0x00, 0x00, 0x00, 0x00, 0x00, 0x00,
   0x00, 0x00, 0x00, 0x00, 0x00, 0x00, 0x00, 0x00, 0x00, 0x00, 0x00, 0x00,
   0x00, 0x00, 0x00, 0x00, 0x00, 0x00, 0x00, 0x00, 0x00, 0x00, 0x00, 0x00,
   0x00, 0x00, 0x00, 0x00, 0x00, 0x00, 0x00, 0x00, 0x00, 0x00, 0x00, 0x00,
   0x00, 0x00, 0x00, 0x00, 0x00, 0x00, 0x00, 0x00, 0x00, 0x00, 0x00, 0x00,
   0x00, 0x00, 0x20, 0x20, 0x00, 0x00, 0x00, 0x80, 0xc0, 0xe0, 0x00, 0x00,
   0x00, 0x00, 0x83, 0x61, 0x00, 0x00, 0x00, 0x20, 0x86, 0x21, 0x00, 0x00,
   0x00, 0x20, 0x06, 0x10, 0x03, 0x00, 0x00, 0xf0, 0xff, 0xff, 0x07, 0x00,
   0x00, 0x30, 0x00, 0x00, 0x03, 0x00, 0x00, 0x18, 0x00, 0x00, 0x01, 0x00,
   0x00, 0x18, 0xff, 0xbf, 0x00, 0x00, 0x00, 0x00, 0x03, 0x30, 0x00, 0x00,
   0x00, 0x00, 0x03, 0x30, 0x00, 0x00, 0x00, 0x00, 0xff, 0x3f, 0x00, 0x00,
   0x00, 0x00, 0x03, 0x30, 0x00, 0x00, 0x00, 0x00, 0x03, 0x30, 0x00, 0x00,
   0x00, 0x00, 0xff, 0x3f, 0x00, 0x00, 0x00, 0x00, 0x03, 0x30, 0x00, 0x00,
   0x00, 0x00, 0x03, 0x30, 0x00, 0x00, 0x00, 0x00, 0xff, 0x3f, 0x00, 0x00,
   0x00, 0x00, 0x33, 0x33, 0x02, 0x00, 0x00, 0x00, 0x38, 0x03, 0x02, 0x00,
   0x00, 0x00, 0x1c, 0x03, 0x02, 0x00, 0x00, 0x00, 0x0e, 0x03, 0x06, 0x00,
   0x00, 0x80, 0x03, 0xff, 0x07, 0x00, 0x00, 0x78, 0x00, 0xfe, 0x03, 0x00,
   0x00, 0x00, 0x00, 0x00, 0x00, 0x00, 0x00, 0x00, 0x00, 0x00, 0x00, 0x00,
   0x00, 0x00, 0x00, 0x00, 0x00, 0x00, 0x00, 0x00, 0x00, 0x00, 0x00, 0x00,
   0x00, 0x00, 0x00, 0x00, 0x00, 0x00, 0x00, 0x00, 0x00, 0x00, 0x00, 0x00,
   0x00, 0x00, 0x00, 0x00, 0x00, 0x00, 0x00, 0x00, 0x00, 0x00, 0x00, 0x00,
   0x00, 0x00, 0x00, 0x00, 0x00, 0x00, 0x00, 0x00, 0x00, 0x00, 0x00, 0x00,
   0x00, 0x00, 0x00, 0x00, 0x00, 0x00, 0x00, 0x00, 0x00, 0x00, 0x00, 0x00,
   0x00, 0x00, 0x00, 0x00, 0x00, 0x00, 0x00, 0x00, 0x00, 0x00, 0x00, 0x00
};
